<?xml version="1.0" encoding="utf-8" ?>
<svg baseProfile="tiny" height="297mm" version="1.2" viewBox="0 0 210 297" width="210mm" xmlns="http://www.w3.org/2000/svg" xmlns:ev="http://www.w3.org/2001/xml-events" xmlns:xlink="http://www.w3.org/1999/xlink"><defs /><g fill="none" id="text_group" stroke="black" stroke-linecap="round" stroke-linejoin="round"><path d="M 110 422 L 110 18.9 L 110 277 L 195 384 L 255 432 L 302 432 L 334 403" stroke-width="0.0197" transform="matrix(0.006 0 0 -0.006 15 126.60000000000001)" /><path d="M 117 438 L 117 9.45 M 94.5 630 L 94.5 589 L 126 586 L 123 630 L 94.5 630" stroke-width="0.0197" transform="matrix(0.006 0 0 -0.006 17.058 126.60000000000001)" /><path d="M 425 350 L 340 419 L 239 432 L 154 387 L 94.5 302 L 85 186 L 113 85.1 L 161 28.4 L 233 9.45 L 293 28.4 L 350 72.4 L 394 142 L 425 220 L 425 428 L 428 -6.3 L 410 -72.5 L 365 -145 L 296 -189 L 230 -195 L 176 -183 L 110 -158" stroke-width="0.0197" transform="matrix(0.006 0 0 -0.006 18.114 126.60000000000001)" /><path d="M 110 658 L 120 12.6 L 104 31.5 L 135 287 L 186 365 L 249 419 L 321 438 L 375 413 L 419 381 L 432 290 L 428 243 L 428 47.2 L 447 22.1 L 485 15.8" stroke-width="0.0197" transform="matrix(0.006 0 0 -0.006 21.042 126.60000000000001)" /><path d="M 145 570 L 148 56.7 L 164 18.9 L 208 12.6 L 271 37.8 M 47.2 422 L 268 419" stroke-width="0.0197" transform="matrix(0.006 0 0 -0.006 24.084000000000003 126.60000000000001)" /><path d="M 110 658 L 120 12.6 L 104 31.5 L 135 287 L 186 365 L 249 419 L 321 438 L 375 413 L 419 381 L 432 290 L 428 243 L 428 47.2 L 447 22.1 L 485 15.8" stroke-width="0.0197" transform="matrix(0.006 0 0 -0.006 29.406000000000006 126.60000000000001)" /><path d="M 53.5 249 L 173 217 L 299 208 L 381 233 L 435 302 L 422 359 L 375 416 L 277 438 L 195 410 L 139 334 L 110 274 L 110 176 L 135 94.5 L 217 22.1 L 290 6.3 L 359 12.6 L 435 63" stroke-width="0.0197" transform="matrix(0.006 0 0 -0.006 32.44800000000001 126.60000000000001)" /><path d="M 117 658 L 117 9.45" stroke-width="0.0197" transform="matrix(0.006 0 0 -0.006 35.30400000000001 126.60000000000001)" /><path d="M 117 658 L 117 9.45" stroke-width="0.0197" transform="matrix(0.006 0 0 -0.006 36.42000000000001 126.60000000000001)" /><path d="M 274 438 L 189 422 L 110 340 L 81.9 214 L 113 101 L 198 25.2 L 293 3.15 L 394 59.9 L 450 180 L 444 302 L 384 400 L 331 428 L 274 438" stroke-width="0.0197" transform="matrix(0.006 0 0 -0.006 37.53600000000001 126.60000000000001)" /><path d="M 110 425 L 123 37.8 L 113 9.45 L 101 18.9 L 113 208 L 164 346 L 258 435 L 356 419 L 406 343 L 419 280 L 428 25.2 L 410 0 L 400 9.45 L 428 287 L 482 375 L 567 432 L 662 406 L 706 324 L 709 189 L 706 53.6 L 721 15.8 L 753 15.8" stroke-width="0.0197" transform="matrix(0.006 0 0 -0.006 44.10600000000001 126.60000000000001)" /><path d="M 107 425 L 113 400 L 120 113 L 148 50.4 L 205 9.45 L 274 9.45 L 359 75.6 L 406 142 L 435 230 L 444 425 L 438 435 L 422 419 L 435 -18.9 L 406 -113 L 340 -170 L 280 -195 L 186 -189 L 101 -151" stroke-width="0.0197" transform="matrix(0.006 0 0 -0.006 48.75600000000001 126.60000000000001)" /><path d="M 113 432 L 129 15.8 L 107 9.45 L 101 44.1 L 129 274 L 208 387 L 280 432 L 369 419 L 422 359 L 441 265 L 435 47.2 L 450 18.9 L 476 18.9" stroke-width="0.0197" transform="matrix(0.006 0 0 -0.006 55.36200000000001 126.60000000000001)" /><path d="M 419 365 L 356 410 L 271 441 L 176 410 L 104 315 L 85 236 L 97.6 142 L 142 47.2 L 230 15.8 L 324 44.1 L 381 110 L 419 186 L 422 428 L 422 66.1 L 432 31.5 L 447 18.9 L 469 18.9" stroke-width="0.0197" transform="matrix(0.006 0 0 -0.006 58.464000000000006 126.60000000000001)" /><path d="M 110 425 L 123 37.8 L 113 9.45 L 101 18.9 L 113 208 L 164 346 L 258 435 L 356 419 L 406 343 L 419 280 L 428 25.2 L 410 0 L 400 9.45 L 428 287 L 482 375 L 567 432 L 662 406 L 706 324 L 709 189 L 706 53.6 L 721 15.8 L 753 15.8" stroke-width="0.0197" transform="matrix(0.006 0 0 -0.006 61.452000000000005 126.60000000000001)" /><path d="M 53.5 249 L 173 217 L 299 208 L 381 233 L 435 302 L 422 359 L 375 416 L 277 438 L 195 410 L 139 334 L 110 274 L 110 176 L 135 94.5 L 217 22.1 L 290 6.3 L 359 12.6 L 435 63" stroke-width="0.0197" transform="matrix(0.006 0 0 -0.006 66.102 126.60000000000001)" /><path d="M 117 438 L 117 9.45 M 94.5 630 L 94.5 589 L 126 586 L 123 630 L 94.5 630" stroke-width="0.0197" transform="matrix(0.006 0 0 -0.006 72.55799999999999 126.60000000000001)" /><path d="M 353 394 L 255 438 L 170 425 L 110 356 L 132 287 L 252 233 L 356 176 L 375 113 L 337 44.1 L 230 9.45 L 129 34.6 L 85 75.6" stroke-width="0.0197" transform="matrix(0.006 0 0 -0.006 73.61399999999999 126.60000000000001)" /><path d="M 419 365 L 356 410 L 271 441 L 176 410 L 104 315 L 85 236 L 97.6 142 L 142 47.2 L 230 15.8 L 324 44.1 L 381 110 L 419 186 L 422 428 L 422 66.1 L 432 31.5 L 447 18.9 L 469 18.9" stroke-width="0.0197" transform="matrix(0.006 0 0 -0.006 79.61399999999999 126.60000000000001)" /><path d="M 110 658 L 120 12.6 L 104 31.5 L 135 287 L 186 365 L 249 419 L 321 438 L 375 413 L 419 381 L 432 290 L 428 243 L 428 47.2 L 447 22.1 L 485 15.8" stroke-width="0.0197" transform="matrix(0.006 0 0 -0.006 86.20199999999998 126.60000000000001)" /><path d="M 117 438 L 117 9.45 M 94.5 630 L 94.5 589 L 126 586 L 123 630 L 94.5 630" stroke-width="0.0197" transform="matrix(0.006 0 0 -0.006 89.24399999999999 126.60000000000001)" /><path d="M 117 658 L 117 9.45" stroke-width="0.0197" transform="matrix(0.006 0 0 -0.006 90.29999999999998 126.60000000000001)" /><path d="M 117 658 L 117 9.45" stroke-width="0.0197" transform="matrix(0.006 0 0 -0.006 91.41599999999998 126.60000000000001)" /><path d="M 117 438 L 117 9.45 M 94.5 630 L 94.5 589 L 126 586 L 123 630 L 94.5 630" stroke-width="0.0197" transform="matrix(0.006 0 0 -0.006 96.13199999999998 126.60000000000001)" /><path d="M 110 425 L 123 37.8 L 113 9.45 L 101 18.9 L 113 208 L 164 346 L 258 435 L 356 419 L 406 343 L 419 280 L 428 25.2 L 410 0 L 400 9.45 L 428 287 L 482 375 L 567 432 L 662 406 L 706 324 L 709 189 L 706 53.6 L 721 15.8 L 753 15.8" stroke-width="0.0197" transform="matrix(0.006 0 0 -0.006 15 135.00000000000003)" /><path d="M 419 365 L 356 410 L 271 441 L 176 410 L 104 315 L 85 236 L 97.6 142 L 142 47.2 L 230 15.8 L 324 44.1 L 381 110 L 419 186 L 422 428 L 422 66.1 L 432 31.5 L 447 18.9 L 469 18.9" stroke-width="0.0197" transform="matrix(0.006 0 0 -0.006 23.25 135.00000000000003)" /><path d="M 145 570 L 148 56.7 L 164 18.9 L 208 12.6 L 271 37.8 M 47.2 422 L 268 419" stroke-width="0.0197" transform="matrix(0.006 0 0 -0.006 29.838 135.00000000000003)" /><path d="M 110 658 L 120 12.6 L 104 31.5 L 135 287 L 186 365 L 249 419 L 321 438 L 375 413 L 419 381 L 432 290 L 428 243 L 428 47.2 L 447 22.1 L 485 15.8" stroke-width="0.0197" transform="matrix(0.006 0 0 -0.006 31.560000000000002 135.00000000000003)" /><path d="M 117 438 L 117 9.45 M 94.5 630 L 94.5 589 L 126 586 L 123 630 L 94.5 630" stroke-width="0.0197" transform="matrix(0.006 0 0 -0.006 34.602000000000004 135.00000000000003)" /><path d="M 110 422 L 110 18.9 L 110 277 L 195 384 L 255 432 L 302 432 L 334 403" stroke-width="0.0197" transform="matrix(0.006 0 0 -0.006 35.658 135.00000000000003)" /><path d="M 501 18.9 L 469 22.1 L 444 50.4 L 435 120 L 438 340 L 365 410 L 277 435 L 189 410 L 120 350 L 88.2 258 L 91.4 176 L 107 110 L 167 37.8 L 249 9.45 L 321 34.6 L 384 97.6 L 413 145 L 435 211 L 447 658" stroke-width="0.0197" transform="matrix(0.006 0 0 -0.006 37.716 135.00000000000003)" /><path d="M 107 425 L 113 400 L 120 113 L 148 50.4 L 205 9.45 L 274 9.45 L 359 75.6 L 406 142 L 435 230 L 444 425 L 438 435 L 422 419 L 435 -18.9 L 406 -113 L 340 -170 L 280 -195 L 186 -189 L 101 -151" stroke-width="0.0197" transform="matrix(0.006 0 0 -0.006 44.436 135.00000000000003)" /><path d="M 53.5 249 L 173 217 L 299 208 L 381 233 L 435 302 L 422 359 L 375 416 L 277 438 L 195 410 L 139 334 L 110 274 L 110 176 L 135 94.5 L 217 22.1 L 290 6.3 L 359 12.6 L 435 63" stroke-width="0.0197" transform="matrix(0.006 0 0 -0.006 47.442 135.00000000000003)" /><path d="M 419 365 L 356 410 L 271 441 L 176 410 L 104 315 L 85 236 L 97.6 142 L 142 47.2 L 230 15.8 L 324 44.1 L 381 110 L 419 186 L 422 428 L 422 66.1 L 432 31.5 L 447 18.9 L 469 18.9" stroke-width="0.0197" transform="matrix(0.006 0 0 -0.006 50.298 135.00000000000003)" /><path d="M 110 422 L 110 18.9 L 110 277 L 195 384 L 255 432 L 302 432 L 334 403" stroke-width="0.0197" transform="matrix(0.006 0 0 -0.006 53.286 135.00000000000003)" /><path d="M 353 394 L 255 438 L 170 425 L 110 356 L 132 287 L 252 233 L 356 176 L 375 113 L 337 44.1 L 230 9.45 L 129 34.6 L 85 75.6" stroke-width="0.0197" transform="matrix(0.006 0 0 -0.006 58.944 135.00000000000003)" /><path d="M 145 570 L 148 56.7 L 164 18.9 L 208 12.6 L 271 37.8 M 47.2 422 L 268 419" stroke-width="0.0197" transform="matrix(0.006 0 0 -0.006 61.344 135.00000000000003)" /><path d="M 113 428 L 117 271 L 117 135 L 148 50.4 L 224 9.45 L 296 18.9 L 372 94.5 L 425 180 L 422 432 L 438 438 L 441 293 L 428 135 L 438 63 L 457 12.6 L 488 12.6" stroke-width="0.0197" transform="matrix(0.006 0 0 -0.006 63.066 135.00000000000003)" /><path d="M 501 18.9 L 469 22.1 L 444 50.4 L 435 120 L 438 340 L 365 410 L 277 435 L 189 410 L 120 350 L 88.2 258 L 91.4 176 L 107 110 L 167 37.8 L 249 9.45 L 321 34.6 L 384 97.6 L 413 145 L 435 211 L 447 658" stroke-width="0.0197" transform="matrix(0.006 0 0 -0.006 66.186 135.00000000000003)" /><path d="M 53.5 249 L 173 217 L 299 208 L 381 233 L 435 302 L 422 359 L 375 416 L 277 438 L 195 410 L 139 334 L 110 274 L 110 176 L 135 94.5 L 217 22.1 L 290 6.3 L 359 12.6 L 435 63" stroke-width="0.0197" transform="matrix(0.006 0 0 -0.006 69.30600000000001 135.00000000000003)" /><path d="M 113 432 L 129 15.8 L 107 9.45 L 101 44.1 L 129 274 L 208 387 L 280 432 L 369 419 L 422 359 L 441 265 L 435 47.2 L 450 18.9 L 476 18.9" stroke-width="0.0197" transform="matrix(0.006 0 0 -0.006 72.162 135.00000000000003)" /><path d="M 145 570 L 148 56.7 L 164 18.9 L 208 12.6 L 271 37.8 M 47.2 422 L 268 419" stroke-width="0.0197" transform="matrix(0.006 0 0 -0.006 75.26400000000001 135.00000000000003)" /><path d="M 110 658 L 120 12.6 L 104 31.5 L 135 287 L 186 365 L 249 419 L 321 438 L 375 413 L 419 381 L 432 290 L 428 243 L 428 47.2 L 447 22.1 L 485 15.8" stroke-width="0.0197" transform="matrix(0.006 0 0 -0.006 80.586 135.00000000000003)" /><path d="M 53.5 249 L 173 217 L 299 208 L 381 233 L 435 302 L 422 359 L 375 416 L 277 438 L 195 410 L 139 334 L 110 274 L 110 176 L 135 94.5 L 217 22.1 L 290 6.3 L 359 12.6 L 435 63" stroke-width="0.0197" transform="matrix(0.006 0 0 -0.006 83.628 135.00000000000003)" /><path d="M 117 658 L 117 9.45" stroke-width="0.0197" transform="matrix(0.006 0 0 -0.006 86.484 135.00000000000003)" /><path d="M 117 658 L 117 9.45" stroke-width="0.0197" transform="matrix(0.006 0 0 -0.006 87.6 135.00000000000003)" /><path d="M 274 438 L 189 422 L 110 340 L 81.9 214 L 113 101 L 198 25.2 L 293 3.15 L 394 59.9 L 450 180 L 444 302 L 384 400 L 331 428 L 274 438" stroke-width="0.0197" transform="matrix(0.006 0 0 -0.006 88.716 135.00000000000003)" /><path d="M 110 425 L 123 37.8 L 113 9.45 L 101 18.9 L 113 208 L 164 346 L 258 435 L 356 419 L 406 343 L 419 280 L 428 25.2 L 410 0 L 400 9.45 L 428 287 L 482 375 L 567 432 L 662 406 L 706 324 L 709 189 L 706 53.6 L 721 15.8 L 753 15.8" stroke-width="0.0197" transform="matrix(0.006 0 0 -0.006 95.28599999999999 135.00000000000003)" /><path d="M 107 425 L 113 400 L 120 113 L 148 50.4 L 205 9.45 L 274 9.45 L 359 75.6 L 406 142 L 435 230 L 444 425 L 438 435 L 422 419 L 435 -18.9 L 406 -113 L 340 -170 L 280 -195 L 186 -189 L 101 -151" stroke-width="0.0197" transform="matrix(0.006 0 0 -0.006 99.93599999999999 135.00000000000003)" /><path d="M 113 432 L 129 15.8 L 107 9.45 L 101 44.1 L 129 274 L 208 387 L 280 432 L 369 419 L 422 359 L 441 265 L 435 47.2 L 450 18.9 L 476 18.9" stroke-width="0.0197" transform="matrix(0.006 0 0 -0.006 106.54199999999999 135.00000000000003)" /><path d="M 419 365 L 356 410 L 271 441 L 176 410 L 104 315 L 85 236 L 97.6 142 L 142 47.2 L 230 15.8 L 324 44.1 L 381 110 L 419 186 L 422 428 L 422 66.1 L 432 31.5 L 447 18.9 L 469 18.9" stroke-width="0.0197" transform="matrix(0.006 0 0 -0.006 109.64399999999999 135.00000000000003)" /><path d="M 110 425 L 123 37.8 L 113 9.45 L 101 18.9 L 113 208 L 164 346 L 258 435 L 356 419 L 406 343 L 419 280 L 428 25.2 L 410 0 L 400 9.45 L 428 287 L 482 375 L 567 432 L 662 406 L 706 324 L 709 189 L 706 53.6 L 721 15.8 L 753 15.8" stroke-width="0.0197" transform="matrix(0.006 0 0 -0.006 112.63199999999999 135.00000000000003)" /><path d="M 53.5 249 L 173 217 L 299 208 L 381 233 L 435 302 L 422 359 L 375 416 L 277 438 L 195 410 L 139 334 L 110 274 L 110 176 L 135 94.5 L 217 22.1 L 290 6.3 L 359 12.6 L 435 63" stroke-width="0.0197" transform="matrix(0.006 0 0 -0.006 117.282 135.00000000000003)" /><path d="M 117 438 L 117 9.45 M 94.5 630 L 94.5 589 L 126 586 L 123 630 L 94.5 630" stroke-width="0.0197" transform="matrix(0.006 0 0 -0.006 15 143.40000000000003)" /><path d="M 353 394 L 255 438 L 170 425 L 110 356 L 132 287 L 252 233 L 356 176 L 375 113 L 337 44.1 L 230 9.45 L 129 34.6 L 85 75.6" stroke-width="0.0197" transform="matrix(0.006 0 0 -0.006 16.056 143.40000000000003)" /><path d="M 117 438 L 117 9.45 M 94.5 630 L 94.5 589 L 126 586 L 123 630 L 94.5 630" stroke-width="0.0197" transform="matrix(0.006 0 0 -0.006 22.055999999999997 143.40000000000003)" /><path d="M 419 365 L 356 410 L 271 441 L 176 410 L 104 315 L 85 236 L 97.6 142 L 142 47.2 L 230 15.8 L 324 44.1 L 381 110 L 419 186 L 422 428 L 422 66.1 L 432 31.5 L 447 18.9 L 469 18.9" stroke-width="0.0197" transform="matrix(0.006 0 0 -0.006 26.711999999999996 143.40000000000003)" /><path d="M 110 425 L 123 37.8 L 113 9.45 L 101 18.9 L 113 208 L 164 346 L 258 435 L 356 419 L 406 343 L 419 280 L 428 25.2 L 410 0 L 400 9.45 L 428 287 L 482 375 L 567 432 L 662 406 L 706 324 L 709 189 L 706 53.6 L 721 15.8 L 753 15.8" stroke-width="0.0197" transform="matrix(0.006 0 0 -0.006 29.699999999999996 143.40000000000003)" /><path d="M 419 365 L 356 410 L 271 441 L 176 410 L 104 315 L 85 236 L 97.6 142 L 142 47.2 L 230 15.8 L 324 44.1 L 381 110 L 419 186 L 422 428 L 422 66.1 L 432 31.5 L 447 18.9 L 469 18.9" stroke-width="0.0197" transform="matrix(0.006 0 0 -0.006 37.949999999999996 143.40000000000003)" /><path d="M 107 665 L 117 205 L 104 15.8 L 139 321 L 224 410 L 321 432 L 391 397 L 432 312 L 438 186 L 406 78.8 L 353 34.6 L 249 12.6 L 176 40.9 L 145 72.4 L 126 123" stroke-width="0.0197" transform="matrix(0.006 0 0 -0.006 44.538 143.40000000000003)" /><path d="M 117 438 L 117 9.45 M 94.5 630 L 94.5 589 L 126 586 L 123 630 L 94.5 630" stroke-width="0.0197" transform="matrix(0.006 0 0 -0.006 47.43 143.40000000000003)" /><path d="M 145 570 L 148 56.7 L 164 18.9 L 208 12.6 L 271 37.8 M 47.2 422 L 268 419" stroke-width="0.0197" transform="matrix(0.006 0 0 -0.006 48.486 143.40000000000003)" /><path d="M 145 570 L 148 56.7 L 164 18.9 L 208 12.6 L 271 37.8 M 47.2 422 L 268 419" stroke-width="0.0197" transform="matrix(0.006 0 0 -0.006 53.808 143.40000000000003)" /><path d="M 110 658 L 120 12.6 L 104 31.5 L 135 287 L 186 365 L 249 419 L 321 438 L 375 413 L 419 381 L 432 290 L 428 243 L 428 47.2 L 447 22.1 L 485 15.8" stroke-width="0.0197" transform="matrix(0.006 0 0 -0.006 55.53 143.40000000000003)" /><path d="M 117 438 L 117 9.45 M 94.5 630 L 94.5 589 L 126 586 L 123 630 L 94.5 630" stroke-width="0.0197" transform="matrix(0.006 0 0 -0.006 58.572 143.40000000000003)" /><path d="M 110 422 L 110 18.9 L 110 277 L 195 384 L 255 432 L 302 432 L 334 403" stroke-width="0.0197" transform="matrix(0.006 0 0 -0.006 59.628 143.40000000000003)" /><path d="M 501 18.9 L 469 22.1 L 444 50.4 L 435 120 L 438 340 L 365 410 L 277 435 L 189 410 L 120 350 L 88.2 258 L 91.4 176 L 107 110 L 167 37.8 L 249 9.45 L 321 34.6 L 384 97.6 L 413 145 L 435 211 L 447 658" stroke-width="0.0197" transform="matrix(0.006 0 0 -0.006 61.686 143.40000000000003)" /><path d="M 107 425 L 113 400 L 120 113 L 148 50.4 L 205 9.45 L 274 9.45 L 359 75.6 L 406 142 L 435 230 L 444 425 L 438 435 L 422 419 L 435 -18.9 L 406 -113 L 340 -170 L 280 -195 L 186 -189 L 101 -151" stroke-width="0.0197" transform="matrix(0.006 0 0 -0.006 68.40599999999999 143.40000000000003)" /><path d="M 53.5 249 L 173 217 L 299 208 L 381 233 L 435 302 L 422 359 L 375 416 L 277 438 L 195 410 L 139 334 L 110 274 L 110 176 L 135 94.5 L 217 22.1 L 290 6.3 L 359 12.6 L 435 63" stroke-width="0.0197" transform="matrix(0.006 0 0 -0.006 71.41199999999999 143.40000000000003)" /><path d="M 419 365 L 356 410 L 271 441 L 176 410 L 104 315 L 85 236 L 97.6 142 L 142 47.2 L 230 15.8 L 324 44.1 L 381 110 L 419 186 L 422 428 L 422 66.1 L 432 31.5 L 447 18.9 L 469 18.9" stroke-width="0.0197" transform="matrix(0.006 0 0 -0.006 74.26799999999999 143.40000000000003)" /><path d="M 110 422 L 110 18.9 L 110 277 L 195 384 L 255 432 L 302 432 L 334 403" stroke-width="0.0197" transform="matrix(0.006 0 0 -0.006 77.25599999999999 143.40000000000003)" /><path d="M 353 394 L 255 438 L 170 425 L 110 356 L 132 287 L 252 233 L 356 176 L 375 113 L 337 44.1 L 230 9.45 L 129 34.6 L 85 75.6" stroke-width="0.0197" transform="matrix(0.006 0 0 -0.006 82.91399999999999 143.40000000000003)" /><path d="M 145 570 L 148 56.7 L 164 18.9 L 208 12.6 L 271 37.8 M 47.2 422 L 268 419" stroke-width="0.0197" transform="matrix(0.006 0 0 -0.006 85.314 143.40000000000003)" /><path d="M 113 428 L 117 271 L 117 135 L 148 50.4 L 224 9.45 L 296 18.9 L 372 94.5 L 425 180 L 422 432 L 438 438 L 441 293 L 428 135 L 438 63 L 457 12.6 L 488 12.6" stroke-width="0.0197" transform="matrix(0.006 0 0 -0.006 87.03599999999999 143.40000000000003)" /><path d="M 501 18.9 L 469 22.1 L 444 50.4 L 435 120 L 438 340 L 365 410 L 277 435 L 189 410 L 120 350 L 88.2 258 L 91.4 176 L 107 110 L 167 37.8 L 249 9.45 L 321 34.6 L 384 97.6 L 413 145 L 435 211 L 447 658" stroke-width="0.0197" transform="matrix(0.006 0 0 -0.006 90.15599999999999 143.40000000000003)" /><path d="M 53.5 249 L 173 217 L 299 208 L 381 233 L 435 302 L 422 359 L 375 416 L 277 438 L 195 410 L 139 334 L 110 274 L 110 176 L 135 94.5 L 217 22.1 L 290 6.3 L 359 12.6 L 435 63" stroke-width="0.0197" transform="matrix(0.006 0 0 -0.006 93.276 143.40000000000003)" /><path d="M 113 432 L 129 15.8 L 107 9.45 L 101 44.1 L 129 274 L 208 387 L 280 432 L 369 419 L 422 359 L 441 265 L 435 47.2 L 450 18.9 L 476 18.9" stroke-width="0.0197" transform="matrix(0.006 0 0 -0.006 96.13199999999999 143.40000000000003)" /><path d="M 145 570 L 148 56.7 L 164 18.9 L 208 12.6 L 271 37.8 M 47.2 422 L 268 419" stroke-width="0.0197" transform="matrix(0.006 0 0 -0.006 99.234 143.40000000000003)" /><path d="M 419 365 L 356 410 L 271 441 L 176 410 L 104 315 L 85 236 L 97.6 142 L 142 47.2 L 230 15.8 L 324 44.1 L 381 110 L 419 186 L 422 428 L 422 66.1 L 432 31.5 L 447 18.9 L 469 18.9" stroke-width="0.0197" transform="matrix(0.006 0 0 -0.006 15 151.80000000000004)" /><path d="M 145 570 L 148 56.7 L 164 18.9 L 208 12.6 L 271 37.8 M 47.2 422 L 268 419" stroke-width="0.0197" transform="matrix(0.006 0 0 -0.006 17.988 151.80000000000004)" /><path d="M 110 425 L 123 37.8 L 113 9.45 L 101 18.9 L 113 208 L 164 346 L 258 435 L 356 419 L 406 343 L 419 280 L 428 25.2 L 410 0 L 400 9.45 L 428 287 L 482 375 L 567 432 L 662 406 L 706 324 L 709 189 L 706 53.6 L 721 15.8 L 753 15.8" stroke-width="0.0197" transform="matrix(0.006 0 0 -0.006 23.310000000000002 151.80000000000004)" /><path d="M 117 438 L 117 9.45 M 94.5 630 L 94.5 589 L 126 586 L 123 630 L 94.5 630" stroke-width="0.0197" transform="matrix(0.006 0 0 -0.006 27.96 151.80000000000004)" /><path d="M 110 422 L 110 18.9 L 110 277 L 195 384 L 255 432 L 302 432 L 334 403" stroke-width="0.0197" transform="matrix(0.006 0 0 -0.006 29.016000000000002 151.80000000000004)" /><path d="M 110 422 L 110 18.9 L 110 277 L 195 384 L 255 432 L 302 432 L 334 403" stroke-width="0.0197" transform="matrix(0.006 0 0 -0.006 31.074 151.80000000000004)" /><path d="M 274 438 L 189 422 L 110 340 L 81.9 214 L 113 101 L 198 25.2 L 293 3.15 L 394 59.9 L 450 180 L 444 302 L 384 400 L 331 428 L 274 438" stroke-width="0.0197" transform="matrix(0.006 0 0 -0.006 33.132000000000005 151.80000000000004)" /><path d="M 110 422 L 110 18.9 L 110 277 L 195 384 L 255 432 L 302 432 L 334 403" stroke-width="0.0197" transform="matrix(0.006 0 0 -0.006 36.102000000000004 151.80000000000004)" /><path d="M 53.5 249 L 173 217 L 299 208 L 381 233 L 435 302 L 422 359 L 375 416 L 277 438 L 195 410 L 139 334 L 110 274 L 110 176 L 135 94.5 L 217 22.1 L 290 6.3 L 359 12.6 L 435 63" stroke-width="0.0197" transform="matrix(0.006 0 0 -0.006 38.160000000000004 151.80000000000004)" /><path d="M 501 18.9 L 469 22.1 L 444 50.4 L 435 120 L 438 340 L 365 410 L 277 435 L 189 410 L 120 350 L 88.2 258 L 91.4 176 L 107 110 L 167 37.8 L 249 9.45 L 321 34.6 L 384 97.6 L 413 145 L 435 211 L 447 658" stroke-width="0.0197" transform="matrix(0.006 0 0 -0.006 41.016000000000005 151.80000000000004)" /><path d="M 117 438 L 117 9.45 M 94.5 630 L 94.5 589 L 126 586 L 123 630 L 94.5 630" stroke-width="0.0197" transform="matrix(0.006 0 0 -0.006 47.736000000000004 151.80000000000004)" /><path d="M 113 432 L 129 15.8 L 107 9.45 L 101 44.1 L 129 274 L 208 387 L 280 432 L 369 419 L 422 359 L 441 265 L 435 47.2 L 450 18.9 L 476 18.9" stroke-width="0.0197" transform="matrix(0.006 0 0 -0.006 48.792 151.80000000000004)" /><path d="M 353 394 L 255 438 L 170 425 L 110 356 L 132 287 L 252 233 L 356 176 L 375 113 L 337 44.1 L 230 9.45 L 129 34.6 L 85 75.6" stroke-width="0.0197" transform="matrix(0.006 0 0 -0.006 51.894 151.80000000000004)" /><path d="M 145 570 L 148 56.7 L 164 18.9 L 208 12.6 L 271 37.8 M 47.2 422 L 268 419" stroke-width="0.0197" transform="matrix(0.006 0 0 -0.006 54.294 151.80000000000004)" /><path d="M 117 438 L 117 9.45 M 94.5 630 L 94.5 589 L 126 586 L 123 630 L 94.5 630" stroke-width="0.0197" transform="matrix(0.006 0 0 -0.006 56.016 151.80000000000004)" /><path d="M 145 570 L 148 56.7 L 164 18.9 L 208 12.6 L 271 37.8 M 47.2 422 L 268 419" stroke-width="0.0197" transform="matrix(0.006 0 0 -0.006 57.071999999999996 151.80000000000004)" /><path d="M 113 428 L 117 271 L 117 135 L 148 50.4 L 224 9.45 L 296 18.9 L 372 94.5 L 425 180 L 422 432 L 438 438 L 441 293 L 428 135 L 438 63 L 457 12.6 L 488 12.6" stroke-width="0.0197" transform="matrix(0.006 0 0 -0.006 58.794 151.80000000000004)" /><path d="M 145 570 L 148 56.7 L 164 18.9 L 208 12.6 L 271 37.8 M 47.2 422 L 268 419" stroke-width="0.0197" transform="matrix(0.006 0 0 -0.006 61.913999999999994 151.80000000000004)" /><path d="M 53.5 249 L 173 217 L 299 208 L 381 233 L 435 302 L 422 359 L 375 416 L 277 438 L 195 410 L 139 334 L 110 274 L 110 176 L 135 94.5 L 217 22.1 L 290 6.3 L 359 12.6 L 435 63" stroke-width="0.0197" transform="matrix(0.006 0 0 -0.006 63.635999999999996 151.80000000000004)" /><path d="M 274 438 L 189 422 L 110 340 L 81.9 214 L 113 101 L 198 25.2 L 293 3.15 L 394 59.9 L 450 180 L 444 302 L 384 400 L 331 428 L 274 438" stroke-width="0.0197" transform="matrix(0.006 0 0 -0.006 70.09199999999998 151.80000000000004)" /><path d="M 66.1 -104 L 123 -37.8 L 142 -3.15 L 132 545 L 151 614 L 183 652 L 217 665 L 246 662 L 296 636 M 47.2 425 L 271 425" stroke-width="0.0197" transform="matrix(0.006 0 0 -0.006 73.06199999999998 151.80000000000004)" /><path d="M 53.5 249 L 173 217 L 299 208 L 381 233 L 435 302 L 422 359 L 375 416 L 277 438 L 195 410 L 139 334 L 110 274 L 110 176 L 135 94.5 L 217 22.1 L 290 6.3 L 359 12.6 L 435 63" stroke-width="0.0197" transform="matrix(0.006 0 0 -0.006 78.26999999999998 151.80000000000004)" /><path d="M 113 432 L 129 15.8 L 107 9.45 L 101 44.1 L 129 274 L 208 387 L 280 432 L 369 419 L 422 359 L 441 265 L 435 47.2 L 450 18.9 L 476 18.9" stroke-width="0.0197" transform="matrix(0.006 0 0 -0.006 81.12599999999998 151.80000000000004)" /><path d="M 425 350 L 340 419 L 239 432 L 154 387 L 94.5 302 L 85 186 L 113 85.1 L 161 28.4 L 233 9.45 L 293 28.4 L 350 72.4 L 394 142 L 425 220 L 425 428 L 428 -6.3 L 410 -72.5 L 365 -145 L 296 -189 L 230 -195 L 176 -183 L 110 -158" stroke-width="0.0197" transform="matrix(0.006 0 0 -0.006 84.22799999999998 151.80000000000004)" /><path d="M 117 438 L 117 9.45 M 94.5 630 L 94.5 589 L 126 586 L 123 630 L 94.5 630" stroke-width="0.0197" transform="matrix(0.006 0 0 -0.006 87.15599999999998 151.80000000000004)" /><path d="M 113 432 L 129 15.8 L 107 9.45 L 101 44.1 L 129 274 L 208 387 L 280 432 L 369 419 L 422 359 L 441 265 L 435 47.2 L 450 18.9 L 476 18.9" stroke-width="0.0197" transform="matrix(0.006 0 0 -0.006 88.21199999999997 151.80000000000004)" /><path d="M 53.5 249 L 173 217 L 299 208 L 381 233 L 435 302 L 422 359 L 375 416 L 277 438 L 195 410 L 139 334 L 110 274 L 110 176 L 135 94.5 L 217 22.1 L 290 6.3 L 359 12.6 L 435 63" stroke-width="0.0197" transform="matrix(0.006 0 0 -0.006 91.31399999999998 151.80000000000004)" /><path d="M 53.5 249 L 173 217 L 299 208 L 381 233 L 435 302 L 422 359 L 375 416 L 277 438 L 195 410 L 139 334 L 110 274 L 110 176 L 135 94.5 L 217 22.1 L 290 6.3 L 359 12.6 L 435 63" stroke-width="0.0197" transform="matrix(0.006 0 0 -0.006 94.16999999999997 151.80000000000004)" /><path d="M 110 422 L 110 18.9 L 110 277 L 195 384 L 255 432 L 302 432 L 334 403" stroke-width="0.0197" transform="matrix(0.006 0 0 -0.006 97.02599999999997 151.80000000000004)" /><path d="M 117 438 L 117 9.45 M 94.5 630 L 94.5 589 L 126 586 L 123 630 L 94.5 630" stroke-width="0.0197" transform="matrix(0.006 0 0 -0.006 99.08399999999997 151.80000000000004)" /><path d="M 113 432 L 129 15.8 L 107 9.45 L 101 44.1 L 129 274 L 208 387 L 280 432 L 369 419 L 422 359 L 441 265 L 435 47.2 L 450 18.9 L 476 18.9" stroke-width="0.0197" transform="matrix(0.006 0 0 -0.006 100.13999999999997 151.80000000000004)" /><path d="M 425 350 L 340 419 L 239 432 L 154 387 L 94.5 302 L 85 186 L 113 85.1 L 161 28.4 L 233 9.45 L 293 28.4 L 350 72.4 L 394 142 L 425 220 L 425 428 L 428 -6.3 L 410 -72.5 L 365 -145 L 296 -189 L 230 -195 L 176 -183 L 110 -158" stroke-width="0.0197" transform="matrix(0.006 0 0 -0.006 103.24199999999998 151.80000000000004)" /><path d="M 419 365 L 356 410 L 271 441 L 176 410 L 104 315 L 85 236 L 97.6 142 L 142 47.2 L 230 15.8 L 324 44.1 L 381 110 L 419 186 L 422 428 L 422 66.1 L 432 31.5 L 447 18.9 L 469 18.9" stroke-width="0.0197" transform="matrix(0.006 0 0 -0.006 109.76999999999997 151.80000000000004)" /><path d="M 113 432 L 129 15.8 L 107 9.45 L 101 44.1 L 129 274 L 208 387 L 280 432 L 369 419 L 422 359 L 441 265 L 435 47.2 L 450 18.9 L 476 18.9" stroke-width="0.0197" transform="matrix(0.006 0 0 -0.006 112.75799999999997 151.80000000000004)" /><path d="M 501 18.9 L 469 22.1 L 444 50.4 L 435 120 L 438 340 L 365 410 L 277 435 L 189 410 L 120 350 L 88.2 258 L 91.4 176 L 107 110 L 167 37.8 L 249 9.45 L 321 34.6 L 384 97.6 L 413 145 L 435 211 L 447 658" stroke-width="0.0197" transform="matrix(0.006 0 0 -0.006 115.85999999999997 151.80000000000004)" /><path d="M 145 570 L 148 56.7 L 164 18.9 L 208 12.6 L 271 37.8 M 47.2 422 L 268 419" stroke-width="0.0197" transform="matrix(0.006 0 0 -0.006 122.57999999999997 151.80000000000004)" /><path d="M 53.5 249 L 173 217 L 299 208 L 381 233 L 435 302 L 422 359 L 375 416 L 277 438 L 195 410 L 139 334 L 110 274 L 110 176 L 135 94.5 L 217 22.1 L 290 6.3 L 359 12.6 L 435 63" stroke-width="0.0197" transform="matrix(0.006 0 0 -0.006 124.30199999999996 151.80000000000004)" /><path d="M 419 384 L 356 428 L 265 438 L 186 413 L 120 343 L 91.4 265 L 101 145 L 161 53.6 L 246 6.3 L 324 6.3 L 422 59.9" stroke-width="0.0197" transform="matrix(0.006 0 0 -0.006 127.15799999999996 151.80000000000004)" /><path d="M 110 658 L 120 12.6 L 104 31.5 L 135 287 L 186 365 L 249 419 L 321 438 L 375 413 L 419 381 L 432 290 L 428 243 L 428 47.2 L 447 22.1 L 485 15.8" stroke-width="0.0197" transform="matrix(0.006 0 0 -0.006 129.83999999999995 151.80000000000004)" /><path d="M 113 432 L 129 15.8 L 107 9.45 L 101 44.1 L 129 274 L 208 387 L 280 432 L 369 419 L 422 359 L 441 265 L 435 47.2 L 450 18.9 L 476 18.9" stroke-width="0.0197" transform="matrix(0.006 0 0 -0.006 132.88199999999995 151.80000000000004)" /><path d="M 274 438 L 189 422 L 110 340 L 81.9 214 L 113 101 L 198 25.2 L 293 3.15 L 394 59.9 L 450 180 L 444 302 L 384 400 L 331 428 L 274 438" stroke-width="0.0197" transform="matrix(0.006 0 0 -0.006 135.98399999999995 151.80000000000004)" /><path d="M 117 658 L 117 9.45" stroke-width="0.0197" transform="matrix(0.006 0 0 -0.006 138.95399999999995 151.80000000000004)" /><path d="M 274 438 L 189 422 L 110 340 L 81.9 214 L 113 101 L 198 25.2 L 293 3.15 L 394 59.9 L 450 180 L 444 302 L 384 400 L 331 428 L 274 438" stroke-width="0.0197" transform="matrix(0.006 0 0 -0.006 140.06999999999996 151.80000000000004)" /><path d="M 425 350 L 340 419 L 239 432 L 154 387 L 94.5 302 L 85 186 L 113 85.1 L 161 28.4 L 233 9.45 L 293 28.4 L 350 72.4 L 394 142 L 425 220 L 425 428 L 428 -6.3 L 410 -72.5 L 365 -145 L 296 -189 L 230 -195 L 176 -183 L 110 -158" stroke-width="0.0197" transform="matrix(0.006 0 0 -0.006 143.03999999999996 151.80000000000004)" /><path d="M 107 425 L 113 400 L 120 113 L 148 50.4 L 205 9.45 L 274 9.45 L 359 75.6 L 406 142 L 435 230 L 444 425 L 438 435 L 422 419 L 435 -18.9 L 406 -113 L 340 -170 L 280 -195 L 186 -189 L 101 -151" stroke-width="0.0197" transform="matrix(0.006 0 0 -0.006 145.96799999999996 151.80000000000004)" /><path d="M 110 658 L 120 12.6 L 104 31.5 L 135 287 L 186 365 L 249 419 L 321 438 L 375 413 L 419 381 L 432 290 L 428 243 L 428 47.2 L 447 22.1 L 485 15.8" stroke-width="0.0197" transform="matrix(0.006 0 0 -0.006 152.57399999999996 151.80000000000004)" /><path d="M 53.5 249 L 173 217 L 299 208 L 381 233 L 435 302 L 422 359 L 375 416 L 277 438 L 195 410 L 139 334 L 110 274 L 110 176 L 135 94.5 L 217 22.1 L 290 6.3 L 359 12.6 L 435 63" stroke-width="0.0197" transform="matrix(0.006 0 0 -0.006 155.61599999999996 151.80000000000004)" /><path d="M 117 658 L 117 9.45" stroke-width="0.0197" transform="matrix(0.006 0 0 -0.006 158.47199999999995 151.80000000000004)" /><path d="M 117 658 L 117 9.45" stroke-width="0.0197" transform="matrix(0.006 0 0 -0.006 159.58799999999997 151.80000000000004)" /><path d="M 274 438 L 189 422 L 110 340 L 81.9 214 L 113 101 L 198 25.2 L 293 3.15 L 394 59.9 L 450 180 L 444 302 L 384 400 L 331 428 L 274 438" stroke-width="0.0197" transform="matrix(0.006 0 0 -0.006 160.70399999999998 151.80000000000004)" /><path d="M 110 425 L 123 37.8 L 113 9.45 L 101 18.9 L 113 208 L 164 346 L 258 435 L 356 419 L 406 343 L 419 280 L 428 25.2 L 410 0 L 400 9.45 L 428 287 L 482 375 L 567 432 L 662 406 L 706 324 L 709 189 L 706 53.6 L 721 15.8 L 753 15.8" stroke-width="0.0197" transform="matrix(0.006 0 0 -0.006 15 160.20000000000005)" /><path d="M 107 425 L 113 400 L 120 113 L 148 50.4 L 205 9.45 L 274 9.45 L 359 75.6 L 406 142 L 435 230 L 444 425 L 438 435 L 422 419 L 435 -18.9 L 406 -113 L 340 -170 L 280 -195 L 186 -189 L 101 -151" stroke-width="0.0197" transform="matrix(0.006 0 0 -0.006 19.65 160.20000000000005)" /><path d="M 113 432 L 129 15.8 L 107 9.45 L 101 44.1 L 129 274 L 208 387 L 280 432 L 369 419 L 422 359 L 441 265 L 435 47.2 L 450 18.9 L 476 18.9" stroke-width="0.0197" transform="matrix(0.006 0 0 -0.006 26.256 160.20000000000005)" /><path d="M 419 365 L 356 410 L 271 441 L 176 410 L 104 315 L 85 236 L 97.6 142 L 142 47.2 L 230 15.8 L 324 44.1 L 381 110 L 419 186 L 422 428 L 422 66.1 L 432 31.5 L 447 18.9 L 469 18.9" stroke-width="0.0197" transform="matrix(0.006 0 0 -0.006 29.358 160.20000000000005)" /><path d="M 110 425 L 123 37.8 L 113 9.45 L 101 18.9 L 113 208 L 164 346 L 258 435 L 356 419 L 406 343 L 419 280 L 428 25.2 L 410 0 L 400 9.45 L 428 287 L 482 375 L 567 432 L 662 406 L 706 324 L 709 189 L 706 53.6 L 721 15.8 L 753 15.8" stroke-width="0.0197" transform="matrix(0.006 0 0 -0.006 32.346000000000004 160.20000000000005)" /><path d="M 53.5 249 L 173 217 L 299 208 L 381 233 L 435 302 L 422 359 L 375 416 L 277 438 L 195 410 L 139 334 L 110 274 L 110 176 L 135 94.5 L 217 22.1 L 290 6.3 L 359 12.6 L 435 63" stroke-width="0.0197" transform="matrix(0.006 0 0 -0.006 36.996 160.20000000000005)" /><path d="M 117 438 L 117 9.45 M 94.5 630 L 94.5 589 L 126 586 L 123 630 L 94.5 630" stroke-width="0.0197" transform="matrix(0.006 0 0 -0.006 43.452000000000005 160.20000000000005)" /><path d="M 353 394 L 255 438 L 170 425 L 110 356 L 132 287 L 252 233 L 356 176 L 375 113 L 337 44.1 L 230 9.45 L 129 34.6 L 85 75.6" stroke-width="0.0197" transform="matrix(0.006 0 0 -0.006 44.508 160.20000000000005)" /><path d="M 110 658 L 120 12.6 L 104 31.5 L 135 287 L 186 365 L 249 419 L 321 438 L 375 413 L 419 381 L 432 290 L 428 243 L 428 47.2 L 447 22.1 L 485 15.8" stroke-width="0.0197" transform="matrix(0.006 0 0 -0.006 50.508 160.20000000000005)" /><path d="M 53.5 249 L 173 217 L 299 208 L 381 233 L 435 302 L 422 359 L 375 416 L 277 438 L 195 410 L 139 334 L 110 274 L 110 176 L 135 94.5 L 217 22.1 L 290 6.3 L 359 12.6 L 435 63" stroke-width="0.0197" transform="matrix(0.006 0 0 -0.006 53.550000000000004 160.20000000000005)" /><path d="M 117 658 L 117 9.45" stroke-width="0.0197" transform="matrix(0.006 0 0 -0.006 56.406000000000006 160.20000000000005)" /><path d="M 107 422 L 126 132 L 135 -170 L 104 -189 L 126 192 L 139 302 L 236 410 L 337 432 L 422 387 L 466 265 L 450 142 L 400 50.4 L 318 15.8 L 227 15.8 L 123 78.8" stroke-width="0.0197" transform="matrix(0.006 0 0 -0.006 57.522000000000006 160.20000000000005)" /><path d="M 66.1 -104 L 123 -37.8 L 142 -3.15 L 132 545 L 151 614 L 183 652 L 217 665 L 246 662 L 296 636 M 47.2 425 L 271 425" stroke-width="0.0197" transform="matrix(0.006 0 0 -0.006 60.58200000000001 160.20000000000005)" /><path d="M 113 428 L 117 271 L 117 135 L 148 50.4 L 224 9.45 L 296 18.9 L 372 94.5 L 425 180 L 422 432 L 438 438 L 441 293 L 428 135 L 438 63 L 457 12.6 L 488 12.6" stroke-width="0.0197" transform="matrix(0.006 0 0 -0.006 62.190000000000005 160.20000000000005)" /><path d="M 117 658 L 117 9.45" stroke-width="0.0197" transform="matrix(0.006 0 0 -0.006 65.31 160.20000000000005)" /><path d="M 53.5 249 L 173 217 L 299 208 L 381 233 L 435 302 L 422 359 L 375 416 L 277 438 L 195 410 L 139 334 L 110 274 L 110 176 L 135 94.5 L 217 22.1 L 290 6.3 L 359 12.6 L 435 63" stroke-width="0.0197" transform="matrix(0.006 0 0 -0.006 70.026 160.20000000000005)" /><path d="M 117 438 L 117 9.45 M 94.5 630 L 94.5 589 L 126 586 L 123 630 L 94.5 630" stroke-width="0.0197" transform="matrix(0.006 0 0 -0.006 72.88199999999999 160.20000000000005)" /><path d="M 425 350 L 340 419 L 239 432 L 154 387 L 94.5 302 L 85 186 L 113 85.1 L 161 28.4 L 233 9.45 L 293 28.4 L 350 72.4 L 394 142 L 425 220 L 425 428 L 428 -6.3 L 410 -72.5 L 365 -145 L 296 -189 L 230 -195 L 176 -183 L 110 -158" stroke-width="0.0197" transform="matrix(0.006 0 0 -0.006 73.93799999999999 160.20000000000005)" /><path d="M 110 658 L 120 12.6 L 104 31.5 L 135 287 L 186 365 L 249 419 L 321 438 L 375 413 L 419 381 L 432 290 L 428 243 L 428 47.2 L 447 22.1 L 485 15.8" stroke-width="0.0197" transform="matrix(0.006 0 0 -0.006 76.86599999999999 160.20000000000005)" /><path d="M 145 570 L 148 56.7 L 164 18.9 L 208 12.6 L 271 37.8 M 47.2 422 L 268 419" stroke-width="0.0197" transform="matrix(0.006 0 0 -0.006 79.90799999999999 160.20000000000005)" /><path d="M 107 425 L 113 400 L 120 113 L 148 50.4 L 205 9.45 L 274 9.45 L 359 75.6 L 406 142 L 435 230 L 444 425 L 438 435 L 422 419 L 435 -18.9 L 406 -113 L 340 -170 L 280 -195 L 186 -189 L 101 -151" stroke-width="0.0197" transform="matrix(0.006 0 0 -0.006 81.62999999999998 160.20000000000005)" /><path d="M 110 658 L 120 12.6 L 104 31.5 L 135 287 L 186 365 L 249 419 L 321 438 L 375 413 L 419 381 L 432 290 L 428 243 L 428 47.2 L 447 22.1 L 485 15.8" stroke-width="0.0197" transform="matrix(0.006 0 0 -0.006 88.23599999999998 160.20000000000005)" /><path d="M 117 438 L 117 9.45 M 94.5 630 L 94.5 589 L 126 586 L 123 630 L 94.5 630" stroke-width="0.0197" transform="matrix(0.006 0 0 -0.006 91.27799999999998 160.20000000000005)" /><path d="M 117 658 L 117 9.45" stroke-width="0.0197" transform="matrix(0.006 0 0 -0.006 92.33399999999997 160.20000000000005)" /><path d="M 117 658 L 117 9.45" stroke-width="0.0197" transform="matrix(0.006 0 0 -0.006 93.44999999999997 160.20000000000005)" /><path d="M 110 658 L 120 12.6 L 104 31.5 L 135 287 L 186 365 L 249 419 L 321 438 L 375 413 L 419 381 L 432 290 L 428 243 L 428 47.2 L 447 22.1 L 485 15.8" stroke-width="0.0197" transform="matrix(0.006 0 0 -0.006 98.16599999999997 160.20000000000005)" /><path d="M 117 438 L 117 9.45 M 94.5 630 L 94.5 589 L 126 586 L 123 630 L 94.5 630" stroke-width="0.0197" transform="matrix(0.006 0 0 -0.006 101.20799999999997 160.20000000000005)" /><path d="M 117 658 L 117 9.45" stroke-width="0.0197" transform="matrix(0.006 0 0 -0.006 102.26399999999997 160.20000000000005)" /><path d="M 117 658 L 117 9.45" stroke-width="0.0197" transform="matrix(0.006 0 0 -0.006 103.37999999999997 160.20000000000005)" /><path d="M 419 365 L 356 410 L 271 441 L 176 410 L 104 315 L 85 236 L 97.6 142 L 142 47.2 L 230 15.8 L 324 44.1 L 381 110 L 419 186 L 422 428 L 422 66.1 L 432 31.5 L 447 18.9 L 469 18.9" stroke-width="0.0197" transform="matrix(0.006 0 0 -0.006 108.09599999999996 160.20000000000005)" /><path d="M 117 658 L 117 9.45" stroke-width="0.0197" transform="matrix(0.006 0 0 -0.006 111.08399999999996 160.20000000000005)" /><path d="M 117 438 L 117 9.45 M 94.5 630 L 94.5 589 L 126 586 L 123 630 L 94.5 630" stroke-width="0.0197" transform="matrix(0.006 0 0 -0.006 112.19999999999996 160.20000000000005)" /><path d="M 419 384 L 356 428 L 265 438 L 186 413 L 120 343 L 91.4 265 L 101 145 L 161 53.6 L 246 6.3 L 324 6.3 L 422 59.9" stroke-width="0.0197" transform="matrix(0.006 0 0 -0.006 113.25599999999996 160.20000000000005)" /><path d="M 53.5 249 L 173 217 L 299 208 L 381 233 L 435 302 L 422 359 L 375 416 L 277 438 L 195 410 L 139 334 L 110 274 L 110 176 L 135 94.5 L 217 22.1 L 290 6.3 L 359 12.6 L 435 63" stroke-width="0.0197" transform="matrix(0.006 0 0 -0.006 115.93799999999996 160.20000000000005)" /><path d="M 53.5 249 L 173 217 L 299 208 L 381 233 L 435 302 L 422 359 L 375 416 L 277 438 L 195 410 L 139 334 L 110 274 L 110 176 L 135 94.5 L 217 22.1 L 290 6.3 L 359 12.6 L 435 63" stroke-width="0.0197" transform="matrix(0.006 0 0 -0.006 15 168.60000000000005)" /><path d="M 50.4 435 L 214 15.8 L 239 12.6 L 397 428" stroke-width="0.0197" transform="matrix(0.006 0 0 -0.006 17.856 168.60000000000005)" /><path d="M 53.5 249 L 173 217 L 299 208 L 381 233 L 435 302 L 422 359 L 375 416 L 277 438 L 195 410 L 139 334 L 110 274 L 110 176 L 135 94.5 L 217 22.1 L 290 6.3 L 359 12.6 L 435 63" stroke-width="0.0197" transform="matrix(0.006 0 0 -0.006 20.424000000000003 168.60000000000005)" /><path d="M 117 658 L 117 9.45" stroke-width="0.0197" transform="matrix(0.006 0 0 -0.006 26.880000000000003 168.60000000000005)" /><path d="M 53.5 249 L 173 217 L 299 208 L 381 233 L 435 302 L 422 359 L 375 416 L 277 438 L 195 410 L 139 334 L 110 274 L 110 176 L 135 94.5 L 217 22.1 L 290 6.3 L 359 12.6 L 435 63" stroke-width="0.0197" transform="matrix(0.006 0 0 -0.006 27.996000000000002 168.60000000000005)" /><path d="M 113 432 L 129 15.8 L 107 9.45 L 101 44.1 L 129 274 L 208 387 L 280 432 L 369 419 L 422 359 L 441 265 L 435 47.2 L 450 18.9 L 476 18.9" stroke-width="0.0197" transform="matrix(0.006 0 0 -0.006 30.852000000000004 168.60000000000005)" /><path d="M 501 18.9 L 469 22.1 L 444 50.4 L 435 120 L 438 340 L 365 410 L 277 435 L 189 410 L 120 350 L 88.2 258 L 91.4 176 L 107 110 L 167 37.8 L 249 9.45 L 321 34.6 L 384 97.6 L 413 145 L 435 211 L 447 658" stroke-width="0.0197" transform="matrix(0.006 0 0 -0.006 33.954 168.60000000000005)" /><path d="M 110 425 L 123 37.8 L 113 9.45 L 101 18.9 L 113 208 L 164 346 L 258 435 L 356 419 L 406 343 L 419 280 L 428 25.2 L 410 0 L 400 9.45 L 428 287 L 482 375 L 567 432 L 662 406 L 706 324 L 709 189 L 706 53.6 L 721 15.8 L 753 15.8" stroke-width="0.0197" transform="matrix(0.006 0 0 -0.006 40.674 168.60000000000005)" /><path d="M 419 365 L 356 410 L 271 441 L 176 410 L 104 315 L 85 236 L 97.6 142 L 142 47.2 L 230 15.8 L 324 44.1 L 381 110 L 419 186 L 422 428 L 422 66.1 L 432 31.5 L 447 18.9 L 469 18.9" stroke-width="0.0197" transform="matrix(0.006 0 0 -0.006 45.324 168.60000000000005)" /><path d="M 113 432 L 129 15.8 L 107 9.45 L 101 44.1 L 129 274 L 208 387 L 280 432 L 369 419 L 422 359 L 441 265 L 435 47.2 L 450 18.9 L 476 18.9" stroke-width="0.0197" transform="matrix(0.006 0 0 -0.006 48.312 168.60000000000005)" /><path d="M 419 384 L 356 428 L 265 438 L 186 413 L 120 343 L 91.4 265 L 101 145 L 161 53.6 L 246 6.3 L 324 6.3 L 422 59.9" stroke-width="0.0197" transform="matrix(0.006 0 0 -0.006 55.013999999999996 168.60000000000005)" /><path d="M 419 365 L 356 410 L 271 441 L 176 410 L 104 315 L 85 236 L 97.6 142 L 142 47.2 L 230 15.8 L 324 44.1 L 381 110 L 419 186 L 422 428 L 422 66.1 L 432 31.5 L 447 18.9 L 469 18.9" stroke-width="0.0197" transform="matrix(0.006 0 0 -0.006 57.696 168.60000000000005)" /><path d="M 113 432 L 129 15.8 L 107 9.45 L 101 44.1 L 129 274 L 208 387 L 280 432 L 369 419 L 422 359 L 441 265 L 435 47.2 L 450 18.9 L 476 18.9" stroke-width="0.0197" transform="matrix(0.006 0 0 -0.006 60.684 168.60000000000005)" /><path d="M 419 365 L 356 410 L 271 441 L 176 410 L 104 315 L 85 236 L 97.6 142 L 142 47.2 L 230 15.8 L 324 44.1 L 381 110 L 419 186 L 422 428 L 422 66.1 L 432 31.5 L 447 18.9 L 469 18.9" stroke-width="0.0197" transform="matrix(0.006 0 0 -0.006 63.785999999999994 168.60000000000005)" /><path d="M 501 18.9 L 469 22.1 L 444 50.4 L 435 120 L 438 340 L 365 410 L 277 435 L 189 410 L 120 350 L 88.2 258 L 91.4 176 L 107 110 L 167 37.8 L 249 9.45 L 321 34.6 L 384 97.6 L 413 145 L 435 211 L 447 658" stroke-width="0.0197" transform="matrix(0.006 0 0 -0.006 66.774 168.60000000000005)" /><path d="M 419 365 L 356 410 L 271 441 L 176 410 L 104 315 L 85 236 L 97.6 142 L 142 47.2 L 230 15.8 L 324 44.1 L 381 110 L 419 186 L 422 428 L 422 66.1 L 432 31.5 L 447 18.9 L 469 18.9" stroke-width="0.0197" transform="matrix(0.006 0 0 -0.006 69.894 168.60000000000005)" /><path d="M 66.1 -104 L 123 -37.8 L 142 -3.15 L 132 545 L 151 614 L 183 652 L 217 665 L 246 662 L 296 636 M 47.2 425 L 271 425" stroke-width="0.0197" transform="matrix(0.006 0 0 -0.006 76.482 168.60000000000005)" /><path d="M 113 428 L 117 271 L 117 135 L 148 50.4 L 224 9.45 L 296 18.9 L 372 94.5 L 425 180 L 422 432 L 438 438 L 441 293 L 428 135 L 438 63 L 457 12.6 L 488 12.6" stroke-width="0.0197" transform="matrix(0.006 0 0 -0.006 78.09 168.60000000000005)" /><path d="M 419 384 L 356 428 L 265 438 L 186 413 L 120 343 L 91.4 265 L 101 145 L 161 53.6 L 246 6.3 L 324 6.3 L 422 59.9" stroke-width="0.0197" transform="matrix(0.006 0 0 -0.006 81.21000000000001 168.60000000000005)" /><path d="M 107 662 L 117 419 L 113 211 L 107 9.45 L 113 293 L 230 403 L 324 435 L 400 375 L 391 287 L 337 246 L 290 211 L 243 198 L 217 211 L 214 233 L 243 230 L 268 202 L 365 50.4 L 391 12.6 L 419 15.8" stroke-width="0.0197" transform="matrix(0.006 0 0 -0.006 83.89200000000001 168.60000000000005)" /><path d="M 274 438 L 189 422 L 110 340 L 81.9 214 L 113 101 L 198 25.2 L 293 3.15 L 394 59.9 L 450 180 L 444 302 L 384 400 L 331 428 L 274 438" stroke-width="0.0197" transform="matrix(0.006 0 0 -0.006 90.156 168.60000000000005)" /><path d="M 66.1 -104 L 123 -37.8 L 142 -3.15 L 132 545 L 151 614 L 183 652 L 217 665 L 246 662 L 296 636 M 47.2 425 L 271 425" stroke-width="0.0197" transform="matrix(0.006 0 0 -0.006 93.126 168.60000000000005)" /><path d="M 66.1 -104 L 123 -37.8 L 142 -3.15 L 132 545 L 151 614 L 183 652 L 217 665 L 246 662 L 296 636 M 47.2 425 L 271 425" stroke-width="0.0197" transform="matrix(0.006 0 0 -0.006 94.73400000000001 168.60000000000005)" /><path d="M 353 394 L 255 438 L 170 425 L 110 356 L 132 287 L 252 233 L 356 176 L 375 113 L 337 44.1 L 230 9.45 L 129 34.6 L 85 75.6" stroke-width="0.0197" transform="matrix(0.006 0 0 -0.006 99.94200000000001 168.60000000000005)" /><path d="M 110 658 L 120 12.6 L 104 31.5 L 135 287 L 186 365 L 249 419 L 321 438 L 375 413 L 419 381 L 432 290 L 428 243 L 428 47.2 L 447 22.1 L 485 15.8" stroke-width="0.0197" transform="matrix(0.006 0 0 -0.006 102.34200000000001 168.60000000000005)" /><path d="M 113 428 L 117 271 L 117 135 L 148 50.4 L 224 9.45 L 296 18.9 L 372 94.5 L 425 180 L 422 432 L 438 438 L 441 293 L 428 135 L 438 63 L 457 12.6 L 488 12.6" stroke-width="0.0197" transform="matrix(0.006 0 0 -0.006 105.38400000000001 168.60000000000005)" /><path d="M 145 570 L 148 56.7 L 164 18.9 L 208 12.6 L 271 37.8 M 47.2 422 L 268 419" stroke-width="0.0197" transform="matrix(0.006 0 0 -0.006 108.50400000000002 168.60000000000005)" /><path d="M 145 570 L 148 56.7 L 164 18.9 L 208 12.6 L 271 37.8 M 47.2 422 L 268 419" stroke-width="0.0197" transform="matrix(0.006 0 0 -0.006 113.82600000000001 168.60000000000005)" /><path d="M 110 658 L 120 12.6 L 104 31.5 L 135 287 L 186 365 L 249 419 L 321 438 L 375 413 L 419 381 L 432 290 L 428 243 L 428 47.2 L 447 22.1 L 485 15.8" stroke-width="0.0197" transform="matrix(0.006 0 0 -0.006 115.548 168.60000000000005)" /><path d="M 53.5 249 L 173 217 L 299 208 L 381 233 L 435 302 L 422 359 L 375 416 L 277 438 L 195 410 L 139 334 L 110 274 L 110 176 L 135 94.5 L 217 22.1 L 290 6.3 L 359 12.6 L 435 63" stroke-width="0.0197" transform="matrix(0.006 0 0 -0.006 118.59 168.60000000000005)" /><path d="M 66.1 -104 L 123 -37.8 L 142 -3.15 L 132 545 L 151 614 L 183 652 L 217 665 L 246 662 L 296 636 M 47.2 425 L 271 425" stroke-width="0.0197" transform="matrix(0.006 0 0 -0.006 15 177.00000000000006)" /><path d="M 113 428 L 117 271 L 117 135 L 148 50.4 L 224 9.45 L 296 18.9 L 372 94.5 L 425 180 L 422 432 L 438 438 L 441 293 L 428 135 L 438 63 L 457 12.6 L 488 12.6" stroke-width="0.0197" transform="matrix(0.006 0 0 -0.006 16.608 177.00000000000006)" /><path d="M 419 384 L 356 428 L 265 438 L 186 413 L 120 343 L 91.4 265 L 101 145 L 161 53.6 L 246 6.3 L 324 6.3 L 422 59.9" stroke-width="0.0197" transform="matrix(0.006 0 0 -0.006 19.728 177.00000000000006)" /><path d="M 107 662 L 117 419 L 113 211 L 107 9.45 L 113 293 L 230 403 L 324 435 L 400 375 L 391 287 L 337 246 L 290 211 L 243 198 L 217 211 L 214 233 L 243 230 L 268 202 L 365 50.4 L 391 12.6 L 419 15.8" stroke-width="0.0197" transform="matrix(0.006 0 0 -0.006 22.41 177.00000000000006)" /><path d="M 113 428 L 117 271 L 117 135 L 148 50.4 L 224 9.45 L 296 18.9 L 372 94.5 L 425 180 L 422 432 L 438 438 L 441 293 L 428 135 L 438 63 L 457 12.6 L 488 12.6" stroke-width="0.0197" transform="matrix(0.006 0 0 -0.006 28.674 177.00000000000006)" /><path d="M 107 422 L 126 132 L 135 -170 L 104 -189 L 126 192 L 139 302 L 236 410 L 337 432 L 422 387 L 466 265 L 450 142 L 400 50.4 L 318 15.8 L 227 15.8 L 123 78.8" stroke-width="0.0197" transform="matrix(0.006 0 0 -0.006 31.794 177.00000000000006)" /><path d="M 117 658 L 117 9.45" stroke-width="0.0197" transform="matrix(0.006 0 0 -0.006 38.454 177.00000000000006)" /><path d="M 53.5 249 L 173 217 L 299 208 L 381 233 L 435 302 L 422 359 L 375 416 L 277 438 L 195 410 L 139 334 L 110 274 L 110 176 L 135 94.5 L 217 22.1 L 290 6.3 L 359 12.6 L 435 63" stroke-width="0.0197" transform="matrix(0.006 0 0 -0.006 39.57 177.00000000000006)" /><path d="M 145 570 L 148 56.7 L 164 18.9 L 208 12.6 L 271 37.8 M 47.2 422 L 268 419" stroke-width="0.0197" transform="matrix(0.006 0 0 -0.006 42.426 177.00000000000006)" /><path d="M 353 394 L 255 438 L 170 425 L 110 356 L 132 287 L 252 233 L 356 176 L 375 113 L 337 44.1 L 230 9.45 L 129 34.6 L 85 75.6" stroke-width="0.0197" transform="matrix(0.006 0 0 -0.006 47.748000000000005 177.00000000000006)" /><path d="M 110 658 L 120 12.6 L 104 31.5 L 135 287 L 186 365 L 249 419 L 321 438 L 375 413 L 419 381 L 432 290 L 428 243 L 428 47.2 L 447 22.1 L 485 15.8" stroke-width="0.0197" transform="matrix(0.006 0 0 -0.006 53.748000000000005 177.00000000000006)" /><path d="M 419 365 L 356 410 L 271 441 L 176 410 L 104 315 L 85 236 L 97.6 142 L 142 47.2 L 230 15.8 L 324 44.1 L 381 110 L 419 186 L 422 428 L 422 66.1 L 432 31.5 L 447 18.9 L 469 18.9" stroke-width="0.0197" transform="matrix(0.006 0 0 -0.006 56.790000000000006 177.00000000000006)" /><path d="M 50.4 435 L 214 15.8 L 239 12.6 L 397 428" stroke-width="0.0197" transform="matrix(0.006 0 0 -0.006 59.778000000000006 177.00000000000006)" /><path d="M 53.5 249 L 173 217 L 299 208 L 381 233 L 435 302 L 422 359 L 375 416 L 277 438 L 195 410 L 139 334 L 110 274 L 110 176 L 135 94.5 L 217 22.1 L 290 6.3 L 359 12.6 L 435 63" stroke-width="0.0197" transform="matrix(0.006 0 0 -0.006 62.346000000000004 177.00000000000006)" /><path d="M 353 394 L 255 438 L 170 425 L 110 356 L 132 287 L 252 233 L 356 176 L 375 113 L 337 44.1 L 230 9.45 L 129 34.6 L 85 75.6" stroke-width="0.0197" transform="matrix(0.006 0 0 -0.006 68.80199999999999 177.00000000000006)" /><path d="M 53.5 249 L 173 217 L 299 208 L 381 233 L 435 302 L 422 359 L 375 416 L 277 438 L 195 410 L 139 334 L 110 274 L 110 176 L 135 94.5 L 217 22.1 L 290 6.3 L 359 12.6 L 435 63" stroke-width="0.0197" transform="matrix(0.006 0 0 -0.006 71.202 177.00000000000006)" /><path d="M 59.9 432 L 101 422 L 375 28.4 L 406 9.45 M 72.5 6.3 L 378 438" stroke-width="0.0197" transform="matrix(0.006 0 0 -0.006 74.05799999999999 177.00000000000006)" /><path d="M 145 570 L 148 56.7 L 164 18.9 L 208 12.6 L 271 37.8 M 47.2 422 L 268 419" stroke-width="0.0197" transform="matrix(0.006 0 0 -0.006 80.22599999999998 177.00000000000006)" /><path d="M 274 438 L 189 422 L 110 340 L 81.9 214 L 113 101 L 198 25.2 L 293 3.15 L 394 59.9 L 450 180 L 444 302 L 384 400 L 331 428 L 274 438" stroke-width="0.0197" transform="matrix(0.006 0 0 -0.006 81.94799999999998 177.00000000000006)" /><path d="M 113 432 L 129 15.8 L 107 9.45 L 101 44.1 L 129 274 L 208 387 L 280 432 L 369 419 L 422 359 L 441 265 L 435 47.2 L 450 18.9 L 476 18.9" stroke-width="0.0197" transform="matrix(0.006 0 0 -0.006 84.91799999999998 177.00000000000006)" /><path d="M 117 438 L 117 9.45 M 94.5 630 L 94.5 589 L 126 586 L 123 630 L 94.5 630" stroke-width="0.0197" transform="matrix(0.006 0 0 -0.006 88.01999999999998 177.00000000000006)" /><path d="M 425 350 L 340 419 L 239 432 L 154 387 L 94.5 302 L 85 186 L 113 85.1 L 161 28.4 L 233 9.45 L 293 28.4 L 350 72.4 L 394 142 L 425 220 L 425 428 L 428 -6.3 L 410 -72.5 L 365 -145 L 296 -189 L 230 -195 L 176 -183 L 110 -158" stroke-width="0.0197" transform="matrix(0.006 0 0 -0.006 89.07599999999998 177.00000000000006)" /><path d="M 110 658 L 120 12.6 L 104 31.5 L 135 287 L 186 365 L 249 419 L 321 438 L 375 413 L 419 381 L 432 290 L 428 243 L 428 47.2 L 447 22.1 L 485 15.8" stroke-width="0.0197" transform="matrix(0.006 0 0 -0.006 92.00399999999998 177.00000000000006)" /><path d="M 145 570 L 148 56.7 L 164 18.9 L 208 12.6 L 271 37.8 M 47.2 422 L 268 419" stroke-width="0.0197" transform="matrix(0.006 0 0 -0.006 95.04599999999998 177.00000000000006)" /><path d="M 107 425 L 113 400 L 120 113 L 148 50.4 L 205 9.45 L 274 9.45 L 359 75.6 L 406 142 L 435 230 L 444 425 L 438 435 L 422 419 L 435 -18.9 L 406 -113 L 340 -170 L 280 -195 L 186 -189 L 101 -151" stroke-width="0.0197" transform="matrix(0.006 0 0 -0.006 100.36799999999997 177.00000000000006)" /><path d="M 53.5 249 L 173 217 L 299 208 L 381 233 L 435 302 L 422 359 L 375 416 L 277 438 L 195 410 L 139 334 L 110 274 L 110 176 L 135 94.5 L 217 22.1 L 290 6.3 L 359 12.6 L 435 63" stroke-width="0.0197" transform="matrix(0.006 0 0 -0.006 103.37399999999997 177.00000000000006)" /><path d="M 419 365 L 356 410 L 271 441 L 176 410 L 104 315 L 85 236 L 97.6 142 L 142 47.2 L 230 15.8 L 324 44.1 L 381 110 L 419 186 L 422 428 L 422 66.1 L 432 31.5 L 447 18.9 L 469 18.9" stroke-width="0.0197" transform="matrix(0.006 0 0 -0.006 106.22999999999996 177.00000000000006)" /><path d="M 110 658 L 120 12.6 L 104 31.5 L 135 287 L 186 365 L 249 419 L 321 438 L 375 413 L 419 381 L 432 290 L 428 243 L 428 47.2 L 447 22.1 L 485 15.8" stroke-width="0.0197" transform="matrix(0.006 0 0 -0.006 109.21799999999996 177.00000000000006)" /><path d="M 117 438 L 117 9.45 M 94.5 630 L 94.5 589 L 126 586 L 123 630 L 94.5 630" stroke-width="0.0197" transform="matrix(0.006 0 0 -0.006 15 185.40000000000006)" /><path d="M 107 662 L 117 419 L 113 211 L 107 9.45 L 113 293 L 230 403 L 324 435 L 400 375 L 391 287 L 337 246 L 290 211 L 243 198 L 217 211 L 214 233 L 243 230 L 268 202 L 365 50.4 L 391 12.6 L 419 15.8" stroke-width="0.0197" transform="matrix(0.006 0 0 -0.006 19.656 185.40000000000006)" /><path d="M 113 432 L 129 15.8 L 107 9.45 L 101 44.1 L 129 274 L 208 387 L 280 432 L 369 419 L 422 359 L 441 265 L 435 47.2 L 450 18.9 L 476 18.9" stroke-width="0.0197" transform="matrix(0.006 0 0 -0.006 22.32 185.40000000000006)" /><path d="M 274 438 L 189 422 L 110 340 L 81.9 214 L 113 101 L 198 25.2 L 293 3.15 L 394 59.9 L 450 180 L 444 302 L 384 400 L 331 428 L 274 438" stroke-width="0.0197" transform="matrix(0.006 0 0 -0.006 25.422 185.40000000000006)" /><path d="M 69.3 432 L 208 12.6 L 233 12.6 L 375 416 L 391 413 L 520 18.9 L 532 18.9 L 684 432" stroke-width="0.0197" transform="matrix(0.006 0 0 -0.006 28.392 185.40000000000006)" /><path d="M 117 438 L 117 9.45 M 94.5 630 L 94.5 589 L 126 586 L 123 630 L 94.5 630" stroke-width="0.0197" transform="matrix(0.006 0 0 -0.006 36.228 185.40000000000006)" /><path d="M 110 658 L 120 12.6 L 104 31.5 L 135 287 L 186 365 L 249 419 L 321 438 L 375 413 L 419 381 L 432 290 L 428 243 L 428 47.2 L 447 22.1 L 485 15.8" stroke-width="0.0197" transform="matrix(0.006 0 0 -0.006 40.884 185.40000000000006)" /><path d="M 53.5 249 L 173 217 L 299 208 L 381 233 L 435 302 L 422 359 L 375 416 L 277 438 L 195 410 L 139 334 L 110 274 L 110 176 L 135 94.5 L 217 22.1 L 290 6.3 L 359 12.6 L 435 63" stroke-width="0.0197" transform="matrix(0.006 0 0 -0.006 43.926 185.40000000000006)" /><path d="M 419 365 L 356 410 L 271 441 L 176 410 L 104 315 L 85 236 L 97.6 142 L 142 47.2 L 230 15.8 L 324 44.1 L 381 110 L 419 186 L 422 428 L 422 66.1 L 432 31.5 L 447 18.9 L 469 18.9" stroke-width="0.0197" transform="matrix(0.006 0 0 -0.006 46.782000000000004 185.40000000000006)" /><path d="M 110 422 L 110 18.9 L 110 277 L 195 384 L 255 432 L 302 432 L 334 403" stroke-width="0.0197" transform="matrix(0.006 0 0 -0.006 49.77 185.40000000000006)" /><path d="M 110 658 L 120 12.6 L 104 31.5 L 135 287 L 186 365 L 249 419 L 321 438 L 375 413 L 419 381 L 432 290 L 428 243 L 428 47.2 L 447 22.1 L 485 15.8" stroke-width="0.0197" transform="matrix(0.006 0 0 -0.006 55.428000000000004 185.40000000000006)" /><path d="M 117 438 L 117 9.45 M 94.5 630 L 94.5 589 L 126 586 L 123 630 L 94.5 630" stroke-width="0.0197" transform="matrix(0.006 0 0 -0.006 58.470000000000006 185.40000000000006)" /><path d="M 110 425 L 123 37.8 L 113 9.45 L 101 18.9 L 113 208 L 164 346 L 258 435 L 356 419 L 406 343 L 419 280 L 428 25.2 L 410 0 L 400 9.45 L 428 287 L 482 375 L 567 432 L 662 406 L 706 324 L 709 189 L 706 53.6 L 721 15.8 L 753 15.8" stroke-width="0.0197" transform="matrix(0.006 0 0 -0.006 59.526 185.40000000000006)" /><path d="M 113 432 L 129 15.8 L 107 9.45 L 101 44.1 L 129 274 L 208 387 L 280 432 L 369 419 L 422 359 L 441 265 L 435 47.2 L 450 18.9 L 476 18.9" stroke-width="0.0197" transform="matrix(0.006 0 0 -0.006 67.776 185.40000000000006)" /><path d="M 274 438 L 189 422 L 110 340 L 81.9 214 L 113 101 L 198 25.2 L 293 3.15 L 394 59.9 L 450 180 L 444 302 L 384 400 L 331 428 L 274 438" stroke-width="0.0197" transform="matrix(0.006 0 0 -0.006 70.878 185.40000000000006)" /><path d="M 107 665 L 117 205 L 104 15.8 L 139 321 L 224 410 L 321 432 L 391 397 L 432 312 L 438 186 L 406 78.8 L 353 34.6 L 249 12.6 L 176 40.9 L 145 72.4 L 126 123" stroke-width="0.0197" transform="matrix(0.006 0 0 -0.006 77.448 185.40000000000006)" /><path d="M 110 422 L 110 18.9 L 110 277 L 195 384 L 255 432 L 302 432 L 334 403" stroke-width="0.0197" transform="matrix(0.006 0 0 -0.006 80.33999999999999 185.40000000000006)" /><path d="M 274 438 L 189 422 L 110 340 L 81.9 214 L 113 101 L 198 25.2 L 293 3.15 L 394 59.9 L 450 180 L 444 302 L 384 400 L 331 428 L 274 438" stroke-width="0.0197" transform="matrix(0.006 0 0 -0.006 82.398 185.40000000000006)" /><path d="M 145 570 L 148 56.7 L 164 18.9 L 208 12.6 L 271 37.8 M 47.2 422 L 268 419" stroke-width="0.0197" transform="matrix(0.006 0 0 -0.006 85.368 185.40000000000006)" /><path d="M 110 658 L 120 12.6 L 104 31.5 L 135 287 L 186 365 L 249 419 L 321 438 L 375 413 L 419 381 L 432 290 L 428 243 L 428 47.2 L 447 22.1 L 485 15.8" stroke-width="0.0197" transform="matrix(0.006 0 0 -0.006 87.08999999999999 185.40000000000006)" /><path d="M 53.5 249 L 173 217 L 299 208 L 381 233 L 435 302 L 422 359 L 375 416 L 277 438 L 195 410 L 139 334 L 110 274 L 110 176 L 135 94.5 L 217 22.1 L 290 6.3 L 359 12.6 L 435 63" stroke-width="0.0197" transform="matrix(0.006 0 0 -0.006 90.13199999999999 185.40000000000006)" /><path d="M 110 422 L 110 18.9 L 110 277 L 195 384 L 255 432 L 302 432 L 334 403" stroke-width="0.0197" transform="matrix(0.006 0 0 -0.006 92.98799999999999 185.40000000000006)" /><path d="M 107 662 L 117 419 L 113 211 L 107 9.45 L 113 293 L 230 403 L 324 435 L 400 375 L 391 287 L 337 246 L 290 211 L 243 198 L 217 211 L 214 233 L 243 230 L 268 202 L 365 50.4 L 391 12.6 L 419 15.8" stroke-width="0.0197" transform="matrix(0.006 0 0 -0.006 98.64599999999999 185.40000000000006)" /><path d="M 113 432 L 129 15.8 L 107 9.45 L 101 44.1 L 129 274 L 208 387 L 280 432 L 369 419 L 422 359 L 441 265 L 435 47.2 L 450 18.9 L 476 18.9" stroke-width="0.0197" transform="matrix(0.006 0 0 -0.006 101.30999999999999 185.40000000000006)" /><path d="M 274 438 L 189 422 L 110 340 L 81.9 214 L 113 101 L 198 25.2 L 293 3.15 L 394 59.9 L 450 180 L 444 302 L 384 400 L 331 428 L 274 438" stroke-width="0.0197" transform="matrix(0.006 0 0 -0.006 104.41199999999999 185.40000000000006)" /><path d="M 69.3 432 L 208 12.6 L 233 12.6 L 375 416 L 391 413 L 520 18.9 L 532 18.9 L 684 432" stroke-width="0.0197" transform="matrix(0.006 0 0 -0.006 107.38199999999999 185.40000000000006)" /><path d="M 274 438 L 189 422 L 110 340 L 81.9 214 L 113 101 L 198 25.2 L 293 3.15 L 394 59.9 L 450 180 L 444 302 L 384 400 L 331 428 L 274 438" stroke-width="0.0197" transform="matrix(0.006 0 0 -0.006 15 193.80000000000007)" /><path d="M 110 658 L 120 12.6 L 104 31.5 L 135 287 L 186 365 L 249 419 L 321 438 L 375 413 L 419 381 L 432 290 L 428 243 L 428 47.2 L 447 22.1 L 485 15.8" stroke-width="0.0197" transform="matrix(0.006 0 0 -0.006 17.97 193.80000000000007)" /><path d="M 107 425 L 113 400 L 120 113 L 148 50.4 L 205 9.45 L 274 9.45 L 359 75.6 L 406 142 L 435 230 L 444 425 L 438 435 L 422 419 L 435 -18.9 L 406 -113 L 340 -170 L 280 -195 L 186 -189 L 101 -151" stroke-width="0.0197" transform="matrix(0.006 0 0 -0.006 24.612000000000002 193.80000000000007)" /><path d="M 53.5 249 L 173 217 L 299 208 L 381 233 L 435 302 L 422 359 L 375 416 L 277 438 L 195 410 L 139 334 L 110 274 L 110 176 L 135 94.5 L 217 22.1 L 290 6.3 L 359 12.6 L 435 63" stroke-width="0.0197" transform="matrix(0.006 0 0 -0.006 27.618000000000002 193.80000000000007)" /><path d="M 419 365 L 356 410 L 271 441 L 176 410 L 104 315 L 85 236 L 97.6 142 L 142 47.2 L 230 15.8 L 324 44.1 L 381 110 L 419 186 L 422 428 L 422 66.1 L 432 31.5 L 447 18.9 L 469 18.9" stroke-width="0.0197" transform="matrix(0.006 0 0 -0.006 30.474000000000004 193.80000000000007)" /><path d="M 110 658 L 120 12.6 L 104 31.5 L 135 287 L 186 365 L 249 419 L 321 438 L 375 413 L 419 381 L 432 290 L 428 243 L 428 47.2 L 447 22.1 L 485 15.8" stroke-width="0.0197" transform="matrix(0.006 0 0 -0.006 33.462 193.80000000000007)" /><path d="M 117 438 L 117 9.45 M 94.5 630 L 94.5 589 L 126 586 L 123 630 L 94.5 630" stroke-width="0.0197" transform="matrix(0.006 0 0 -0.006 40.104000000000006 193.80000000000007)" /><path d="M 107 662 L 117 419 L 113 211 L 107 9.45 L 113 293 L 230 403 L 324 435 L 400 375 L 391 287 L 337 246 L 290 211 L 243 198 L 217 211 L 214 233 L 243 230 L 268 202 L 365 50.4 L 391 12.6 L 419 15.8" stroke-width="0.0197" transform="matrix(0.006 0 0 -0.006 44.760000000000005 193.80000000000007)" /><path d="M 113 432 L 129 15.8 L 107 9.45 L 101 44.1 L 129 274 L 208 387 L 280 432 L 369 419 L 422 359 L 441 265 L 435 47.2 L 450 18.9 L 476 18.9" stroke-width="0.0197" transform="matrix(0.006 0 0 -0.006 47.42400000000001 193.80000000000007)" /><path d="M 274 438 L 189 422 L 110 340 L 81.9 214 L 113 101 L 198 25.2 L 293 3.15 L 394 59.9 L 450 180 L 444 302 L 384 400 L 331 428 L 274 438" stroke-width="0.0197" transform="matrix(0.006 0 0 -0.006 50.526 193.80000000000007)" /><path d="M 69.3 432 L 208 12.6 L 233 12.6 L 375 416 L 391 413 L 520 18.9 L 532 18.9 L 684 432" stroke-width="0.0197" transform="matrix(0.006 0 0 -0.006 53.496 193.80000000000007)" /><path d="M 117 438 L 117 9.45 M 94.5 630 L 94.5 589 L 126 586 L 123 630 L 94.5 630" stroke-width="0.0197" transform="matrix(0.006 0 0 -0.006 61.332 193.80000000000007)" /><path d="M 110 658 L 120 12.6 L 104 31.5 L 135 287 L 186 365 L 249 419 L 321 438 L 375 413 L 419 381 L 432 290 L 428 243 L 428 47.2 L 447 22.1 L 485 15.8" stroke-width="0.0197" transform="matrix(0.006 0 0 -0.006 65.988 193.80000000000007)" /><path d="M 53.5 249 L 173 217 L 299 208 L 381 233 L 435 302 L 422 359 L 375 416 L 277 438 L 195 410 L 139 334 L 110 274 L 110 176 L 135 94.5 L 217 22.1 L 290 6.3 L 359 12.6 L 435 63" stroke-width="0.0197" transform="matrix(0.006 0 0 -0.006 69.03 193.80000000000007)" /><path d="M 419 365 L 356 410 L 271 441 L 176 410 L 104 315 L 85 236 L 97.6 142 L 142 47.2 L 230 15.8 L 324 44.1 L 381 110 L 419 186 L 422 428 L 422 66.1 L 432 31.5 L 447 18.9 L 469 18.9" stroke-width="0.0197" transform="matrix(0.006 0 0 -0.006 71.886 193.80000000000007)" /><path d="M 110 422 L 110 18.9 L 110 277 L 195 384 L 255 432 L 302 432 L 334 403" stroke-width="0.0197" transform="matrix(0.006 0 0 -0.006 74.874 193.80000000000007)" /><path d="M 107 665 L 117 205 L 104 15.8 L 139 321 L 224 410 L 321 432 L 391 397 L 432 312 L 438 186 L 406 78.8 L 353 34.6 L 249 12.6 L 176 40.9 L 145 72.4 L 126 123" stroke-width="0.0197" transform="matrix(0.006 0 0 -0.006 80.53199999999998 193.80000000000007)" /><path d="M 110 422 L 110 18.9 L 110 277 L 195 384 L 255 432 L 302 432 L 334 403" stroke-width="0.0197" transform="matrix(0.006 0 0 -0.006 83.42399999999998 193.80000000000007)" /><path d="M 274 438 L 189 422 L 110 340 L 81.9 214 L 113 101 L 198 25.2 L 293 3.15 L 394 59.9 L 450 180 L 444 302 L 384 400 L 331 428 L 274 438" stroke-width="0.0197" transform="matrix(0.006 0 0 -0.006 85.48199999999997 193.80000000000007)" /><path d="M 113 428 L 117 271 L 117 135 L 148 50.4 L 224 9.45 L 296 18.9 L 372 94.5 L 425 180 L 422 432 L 438 438 L 441 293 L 428 135 L 438 63 L 457 12.6 L 488 12.6" stroke-width="0.0197" transform="matrix(0.006 0 0 -0.006 88.45199999999997 193.80000000000007)" /><path d="M 425 350 L 340 419 L 239 432 L 154 387 L 94.5 302 L 85 186 L 113 85.1 L 161 28.4 L 233 9.45 L 293 28.4 L 350 72.4 L 394 142 L 425 220 L 425 428 L 428 -6.3 L 410 -72.5 L 365 -145 L 296 -189 L 230 -195 L 176 -183 L 110 -158" stroke-width="0.0197" transform="matrix(0.006 0 0 -0.006 91.57199999999997 193.80000000000007)" /><path d="M 110 658 L 120 12.6 L 104 31.5 L 135 287 L 186 365 L 249 419 L 321 438 L 375 413 L 419 381 L 432 290 L 428 243 L 428 47.2 L 447 22.1 L 485 15.8" stroke-width="0.0197" transform="matrix(0.006 0 0 -0.006 94.49999999999997 193.80000000000007)" /><path d="M 145 570 L 148 56.7 L 164 18.9 L 208 12.6 L 271 37.8 M 47.2 422 L 268 419" stroke-width="0.0197" transform="matrix(0.006 0 0 -0.006 97.54199999999997 193.80000000000007)" /><path d="M 117 658 L 117 9.45" stroke-width="0.0197" transform="matrix(0.006 0 0 -0.006 102.86399999999996 193.80000000000007)" /><path d="M 274 438 L 189 422 L 110 340 L 81.9 214 L 113 101 L 198 25.2 L 293 3.15 L 394 59.9 L 450 180 L 444 302 L 384 400 L 331 428 L 274 438" stroke-width="0.0197" transform="matrix(0.006 0 0 -0.006 103.97999999999996 193.80000000000007)" /><path d="M 145 570 L 148 56.7 L 164 18.9 L 208 12.6 L 271 37.8 M 47.2 422 L 268 419" stroke-width="0.0197" transform="matrix(0.006 0 0 -0.006 106.94999999999996 193.80000000000007)" /><path d="M 107 422 L 126 132 L 135 -170 L 104 -189 L 126 192 L 139 302 L 236 410 L 337 432 L 422 387 L 466 265 L 450 142 L 400 50.4 L 318 15.8 L 227 15.8 L 123 78.8" stroke-width="0.0197" transform="matrix(0.006 0 0 -0.006 15 202.20000000000007)" /><path d="M 117 658 L 117 9.45" stroke-width="0.0197" transform="matrix(0.006 0 0 -0.006 18.06 202.20000000000007)" /><path d="M 274 438 L 189 422 L 110 340 L 81.9 214 L 113 101 L 198 25.2 L 293 3.15 L 394 59.9 L 450 180 L 444 302 L 384 400 L 331 428 L 274 438" stroke-width="0.0197" transform="matrix(0.006 0 0 -0.006 19.176 202.20000000000007)" /><path d="M 145 570 L 148 56.7 L 164 18.9 L 208 12.6 L 271 37.8 M 47.2 422 L 268 419" stroke-width="0.0197" transform="matrix(0.006 0 0 -0.006 22.145999999999997 202.20000000000007)" /><path d="M 107 665 L 117 205 L 104 15.8 L 139 321 L 224 410 L 321 432 L 391 397 L 432 312 L 438 186 L 406 78.8 L 353 34.6 L 249 12.6 L 176 40.9 L 145 72.4 L 126 123" stroke-width="0.0197" transform="matrix(0.006 0 0 -0.006 27.467999999999996 202.20000000000007)" /><path d="M 117 658 L 117 9.45" stroke-width="0.0197" transform="matrix(0.006 0 0 -0.006 30.359999999999996 202.20000000000007)" /><path d="M 274 438 L 189 422 L 110 340 L 81.9 214 L 113 101 L 198 25.2 L 293 3.15 L 394 59.9 L 450 180 L 444 302 L 384 400 L 331 428 L 274 438" stroke-width="0.0197" transform="matrix(0.006 0 0 -0.006 31.475999999999996 202.20000000000007)" /><path d="M 145 570 L 148 56.7 L 164 18.9 L 208 12.6 L 271 37.8 M 47.2 422 L 268 419" stroke-width="0.0197" transform="matrix(0.006 0 0 -0.006 34.446 202.20000000000007)" /></g></svg>