<?xml version="1.0" encoding="utf-8" ?>
<svg baseProfile="tiny" height="297mm" version="1.2" viewBox="0 0 210 297" width="210mm" xmlns="http://www.w3.org/2000/svg" xmlns:ev="http://www.w3.org/2001/xml-events" xmlns:xlink="http://www.w3.org/1999/xlink"><defs /><g fill="none" id="text_group" stroke="black" stroke-linecap="round" stroke-linejoin="round"><path d="M 419 365 L 356 410 L 271 441 L 176 410 L 104 315 L 85 236 L 97.6 142 L 142 47.2 L 230 15.8 L 324 44.1 L 381 110 L 419 186 L 422 428 L 422 66.1 L 432 31.5 L 447 18.9 L 469 18.9" stroke-width="0.0197" transform="matrix(0.006 0 0 -0.006 15 103.8)" /><path d="M 107 665 L 117 205 L 104 15.8 L 139 321 L 224 410 L 321 432 L 391 397 L 432 312 L 438 186 L 406 78.8 L 353 34.6 L 249 12.6 L 176 40.9 L 145 72.4 L 126 123" stroke-width="0.0197" transform="matrix(0.006 0 0 -0.006 17.988 103.8)" /><path d="M 110 658 L 120 12.6 L 104 31.5 L 135 287 L 186 365 L 249 419 L 321 438 L 375 413 L 419 381 L 432 290 L 428 243 L 428 47.2 L 447 22.1 L 485 15.8" stroke-width="0.0197" transform="matrix(0.006 0 0 -0.006 20.88 103.8)" /><path d="M 117 438 L 117 9.45 M 94.5 630 L 94.5 589 L 126 586 L 123 630 L 94.5 630" stroke-width="0.0197" transform="matrix(0.006 0 0 -0.006 23.922 103.8)" /><path d="M 353 394 L 255 438 L 170 425 L 110 356 L 132 287 L 252 233 L 356 176 L 375 113 L 337 44.1 L 230 9.45 L 129 34.6 L 85 75.6" stroke-width="0.0197" transform="matrix(0.006 0 0 -0.006 28.578000000000003 103.8)" /><path d="M 113 428 L 117 271 L 117 135 L 148 50.4 L 224 9.45 L 296 18.9 L 372 94.5 L 425 180 L 422 432 L 438 438 L 441 293 L 428 135 L 438 63 L 457 12.6 L 488 12.6" stroke-width="0.0197" transform="matrix(0.006 0 0 -0.006 30.978 103.8)" /><path d="M 107 665 L 117 205 L 104 15.8 L 139 321 L 224 410 L 321 432 L 391 397 L 432 312 L 438 186 L 406 78.8 L 353 34.6 L 249 12.6 L 176 40.9 L 145 72.4 L 126 123" stroke-width="0.0197" transform="matrix(0.006 0 0 -0.006 34.098 103.8)" /><path d="M 110 658 L 120 12.6 L 104 31.5 L 135 287 L 186 365 L 249 419 L 321 438 L 375 413 L 419 381 L 432 290 L 428 243 L 428 47.2 L 447 22.1 L 485 15.8" stroke-width="0.0197" transform="matrix(0.006 0 0 -0.006 36.99 103.8)" /><path d="M 419 365 L 356 410 L 271 441 L 176 410 L 104 315 L 85 236 L 97.6 142 L 142 47.2 L 230 15.8 L 324 44.1 L 381 110 L 419 186 L 422 428 L 422 66.1 L 432 31.5 L 447 18.9 L 469 18.9" stroke-width="0.0197" transform="matrix(0.006 0 0 -0.006 40.032000000000004 103.8)" /><path d="M 107 662 L 117 419 L 113 211 L 107 9.45 L 113 293 L 230 403 L 324 435 L 400 375 L 391 287 L 337 246 L 290 211 L 243 198 L 217 211 L 214 233 L 243 230 L 268 202 L 365 50.4 L 391 12.6 L 419 15.8" stroke-width="0.0197" transform="matrix(0.006 0 0 -0.006 46.620000000000005 103.8)" /><path d="M 432 608 L 309 595 L 192 517 L 113 372 L 97.6 239 L 126 107 L 205 18.9 L 334 6.3 L 422 66.1 L 466 167 L 444 287 L 375 359 L 284 378 L 214 359 L 176 318 L 120 268" stroke-width="0.0197" transform="matrix(0.006 0 0 -0.006 52.88400000000001 103.8)" /><path d="M 107 419 L 113 378 L 129 381 L 129 416 L 107 419 M 101 50.4 L 97.6 9.45 L 126 9.45 L 126 53.6 L 101 50.4" stroke-width="0.0197" transform="matrix(0.006 0 0 -0.006 55.90800000000001 103.8)" /><path d="M 56.7 397 L 239 621 L 239 15.8" stroke-width="0.0197" transform="matrix(0.006 0 0 -0.006 57.02400000000001 103.8)" /><path d="M 425 608 L 117 598 L 129 504 L 126 422 L 120 318 L 186 362 L 268 391 L 343 381 L 410 337 L 457 243 L 447 151 L 419 78.8 L 343 12.6 L 239 9.45 L 167 37.8 L 94.5 117" stroke-width="0.0197" transform="matrix(0.006 0 0 -0.006 59.028000000000006 103.8)" /><path d="M 419 365 L 356 410 L 271 441 L 176 410 L 104 315 L 85 236 L 97.6 142 L 142 47.2 L 230 15.8 L 324 44.1 L 381 110 L 419 186 L 422 428 L 422 66.1 L 432 31.5 L 447 18.9 L 469 18.9" stroke-width="0.0197" transform="matrix(0.006 0 0 -0.006 65.652 103.8)" /><path d="M 110 425 L 123 37.8 L 113 9.45 L 101 18.9 L 113 208 L 164 346 L 258 435 L 356 419 L 406 343 L 419 280 L 428 25.2 L 410 0 L 400 9.45 L 428 287 L 482 375 L 567 432 L 662 406 L 706 324 L 709 189 L 706 53.6 L 721 15.8 L 753 15.8" stroke-width="0.0197" transform="matrix(0.006 0 0 -0.006 68.64 103.8)" /><path d="M 107 665 L 117 205 L 104 15.8 L 139 321 L 224 410 L 321 432 L 391 397 L 432 312 L 438 186 L 406 78.8 L 353 34.6 L 249 12.6 L 176 40.9 L 145 72.4 L 126 123" stroke-width="0.0197" transform="matrix(0.006 0 0 -0.006 76.89 103.8)" /><path d="M 419 365 L 356 410 L 271 441 L 176 410 L 104 315 L 85 236 L 97.6 142 L 142 47.2 L 230 15.8 L 324 44.1 L 381 110 L 419 186 L 422 428 L 422 66.1 L 432 31.5 L 447 18.9 L 469 18.9" stroke-width="0.0197" transform="matrix(0.006 0 0 -0.006 79.782 103.8)" /><path d="M 419 365 L 356 410 L 271 441 L 176 410 L 104 315 L 85 236 L 97.6 142 L 142 47.2 L 230 15.8 L 324 44.1 L 381 110 L 419 186 L 422 428 L 422 66.1 L 432 31.5 L 447 18.9 L 469 18.9" stroke-width="0.0197" transform="matrix(0.006 0 0 -0.006 82.77 103.8)" /><path d="M 110 438 L 110 -59.9 L 81.9 -110 L 41 -158 M 97.6 621 L 101 576 L 126 583 L 129 621 L 97.6 621" stroke-width="0.0197" transform="matrix(0.006 0 0 -0.006 85.758 103.8)" /><path d="M 110 422 L 110 18.9 L 110 277 L 195 384 L 255 432 L 302 432 L 334 403" stroke-width="0.0197" transform="matrix(0.006 0 0 -0.006 90.43799999999999 103.8)" /><path d="M 110 658 L 120 12.6 L 104 31.5 L 135 287 L 186 365 L 249 419 L 321 438 L 375 413 L 419 381 L 432 290 L 428 243 L 428 47.2 L 447 22.1 L 485 15.8" stroke-width="0.0197" transform="matrix(0.006 0 0 -0.006 92.49599999999998 103.8)" /><path d="M 53.5 249 L 173 217 L 299 208 L 381 233 L 435 302 L 422 359 L 375 416 L 277 438 L 195 410 L 139 334 L 110 274 L 110 176 L 135 94.5 L 217 22.1 L 290 6.3 L 359 12.6 L 435 63" stroke-width="0.0197" transform="matrix(0.006 0 0 -0.006 95.53799999999998 103.8)" /><path d="M 110 658 L 120 12.6 L 104 31.5 L 135 287 L 186 365 L 249 419 L 321 438 L 375 413 L 419 381 L 432 290 L 428 243 L 428 47.2 L 447 22.1 L 485 15.8" stroke-width="0.0197" transform="matrix(0.006 0 0 -0.006 101.99399999999997 103.8)" /><path d="M 419 365 L 356 410 L 271 441 L 176 410 L 104 315 L 85 236 L 97.6 142 L 142 47.2 L 230 15.8 L 324 44.1 L 381 110 L 419 186 L 422 428 L 422 66.1 L 432 31.5 L 447 18.9 L 469 18.9" stroke-width="0.0197" transform="matrix(0.006 0 0 -0.006 105.03599999999997 103.8)" /><path d="M 117 438 L 117 9.45 M 94.5 630 L 94.5 589 L 126 586 L 123 630 L 94.5 630" stroke-width="0.0197" transform="matrix(0.006 0 0 -0.006 108.02399999999997 103.8)" /></g></svg>